<?xml version="1.0" standalone="no"?>
<!DOCTYPE svg PUBLIC "-//W3C//DTD SVG 20010904//EN"
 "http://www.w3.org/TR/2001/REC-SVG-20010904/DTD/svg10.dtd">
<svg version="1.0" xmlns="http://www.w3.org/2000/svg"
 width="2847.000000pt" height="2847.000000pt" viewBox="0 0 2847.000000 2847.000000"
 preserveAspectRatio="xMidYMid meet">
<metadata>
Created by potrace 1.11, written by Peter Selinger 2001-2013
</metadata>
<g transform="translate(0.000000,2847.000000) scale(0.100000,-0.100000)"
fill="#000000" stroke="none">
<path d="M12420 27191 c-112 -34 -174 -118 -174 -237 0 -62 3 -78 29 -120 18
-30 51 -63 82 -83 l51 -34 0 -265 0 -265 146 -146 146 -146 0 -1043 0 -1042
-188 -188 -189 -189 1 -646 1 -646 170 -170 c94 -94 172 -174 175 -177 3 -3 5
-600 5 -1327 0 -727 4 -1328 8 -1335 5 -7 13 -10 18 -6 5 3 8 2 7 -3 -4 -11
122 -139 134 -135 4 1 7 -2 6 -6 -4 -12 114 -128 126 -124 6 2 8 0 4 -4 -8 -8
82 -100 94 -96 4 1 7 -2 6 -6 -4 -11 144 -158 155 -154 5 1 6 -2 3 -6 -3 -5 9
-21 27 -36 l32 -27 0 -760 0 -760 -125 3 -125 3 0 650 c1 612 0 651 -17 666
-10 9 -18 21 -18 28 0 6 -4 10 -9 9 -5 -2 -9 0 -10 5 -2 13 -36 44 -43 40 -5
-2 -8 4 -8 13 0 10 -3 15 -6 12 -7 -7 -94 81 -94 95 0 6 -3 8 -6 5 -7 -8 -72
55 -67 65 2 4 -3 7 -11 7 -9 0 -15 3 -14 8 2 4 0 8 -5 9 -15 5 -35 28 -30 36
2 4 0 7 -5 7 -14 0 -62 47 -55 54 4 3 -1 6 -11 6 -9 0 -14 5 -11 10 3 6 2 10
-3 10 -13 0 -101 88 -94 94 3 3 -2 6 -11 6 -10 0 -16 6 -15 13 2 6 -3 11 -9 9
-7 -1 -13 5 -13 14 0 8 -4 12 -10 9 -5 -3 -10 2 -10 11 0 10 -3 15 -6 12 -6
-7 -94 81 -94 94 0 5 -4 7 -9 4 -5 -3 -12 2 -17 12 -4 9 -8 550 -9 1202 l-1
1185 -27 29 c-15 16 -27 33 -27 37 0 5 -5 8 -12 6 -7 -1 -12 3 -13 10 0 6 -4
15 -9 20 -5 5 -6 2 -2 -7 4 -8 -2 -4 -13 10 -11 14 -21 29 -21 33 0 5 -4 5
-10 2 -5 -3 -10 1 -10 9 0 9 -6 15 -12 13 -7 -1 -12 4 -11 10 2 7 0 12 -5 10
-4 -1 -7 2 -7 6 0 4 -15 17 -32 28 -18 12 -33 27 -33 35 0 8 -7 14 -15 14 -9
0 -20 11 -25 25 -5 14 -17 25 -25 25 -9 0 -13 5 -10 10 3 6 0 10 -8 10 -8 0
-24 15 -36 33 -11 17 -24 32 -28 32 -4 0 -7 4 -5 8 1 5 -2 6 -7 3 -5 -3 -11 4
-14 17 -3 12 -6 446 -6 964 l0 942 -224 224 -224 224 0 1001 0 1000 36 7 c53
10 84 29 129 80 120 136 51 352 -126 394 -59 14 -111 8 -168 -20 -55 -28 -80
-54 -109 -116 -65 -133 23 -311 167 -338 l35 -7 -1 -1008 c-1 -554 2 -1006 7
-1003 4 2 7 -3 7 -12 0 -9 4 -14 9 -10 5 3 12 -4 16 -15 4 -11 10 -18 15 -15
4 3 14 -3 21 -12 12 -14 12 -16 -1 -9 -8 4 -4 -2 10 -13 14 -11 29 -21 33 -21
5 0 5 -4 2 -10 -3 -5 1 -10 10 -10 9 0 13 -4 10 -10 -3 -5 1 -10 9 -10 8 0 18
-9 21 -20 3 -11 13 -20 21 -20 8 0 14 -4 14 -8 0 -5 7 -17 16 -28 8 -10 12
-12 8 -4 -7 13 -5 13 9 1 9 -7 15 -17 12 -21 -3 -5 4 -11 15 -15 11 -4 18 -11
15 -16 -4 -5 1 -9 10 -9 9 0 13 -4 10 -10 -3 -5 1 -10 9 -10 8 0 17 -9 21 -19
3 -10 15 -21 26 -24 12 -3 18 -10 15 -16 -4 -5 -1 -13 5 -17 8 -5 9 -3 4 6 -5
9 -4 11 3 6 7 -4 12 -14 12 -22 0 -8 5 -12 10 -9 6 3 10 -1 10 -9 0 -8 5 -18
12 -22 7 -5 9 -2 4 7 -4 8 -2 7 6 -2 11 -13 13 -190 13 -968 0 -732 3 -957 12
-974 7 -12 12 -19 13 -15 0 9 185 -175 218 -216 12 -16 22 -25 22 -20 0 4 16
-9 35 -30 19 -21 35 -42 35 -47 0 -5 3 -8 8 -7 4 1 24 -14 45 -35 l37 -37 0
-1190 0 -1190 360 -360 360 -360 0 -650 0 -650 -124 0 -124 0 0 576 c0 430 -3
579 -12 584 -6 4 -12 11 -13 16 -1 13 -66 72 -72 66 -3 -3 -5 0 -5 6 0 15 -96
112 -111 112 -7 0 -9 3 -6 6 7 7 -30 44 -45 44 -4 0 -8 5 -8 10 0 15 -87 100
-101 100 -7 0 -9 3 -6 6 7 7 -30 44 -45 44 -4 0 -8 4 -8 9 0 5 -22 32 -50 60
-27 28 -50 48 -50 44 0 -4 -8 4 -18 20 -10 15 -22 24 -25 20 -4 -3 -7 -1 -7 5
0 14 -96 112 -110 112 -6 0 -8 4 -5 10 3 5 -3 15 -15 22 -20 13 -20 16 -20
1173 l0 1160 -232 232 -231 232 0 869 0 870 -220 219 -220 218 -1 732 -1 732
-45 48 c-24 26 -48 47 -52 45 -4 -1 -8 5 -8 13 0 8 -7 15 -15 15 -8 0 -15 4
-15 8 0 5 -9 19 -20 32 -11 13 -20 19 -20 14 0 -5 -8 3 -18 19 -10 15 -22 24
-25 20 -4 -3 -7 -2 -7 4 0 5 -25 35 -55 67 -30 31 -55 53 -55 49 0 -4 -8 4
-18 20 -10 15 -22 24 -25 20 -4 -3 -7 -2 -7 4 0 11 -46 64 -51 58 -3 -3 -3
678 0 752 1 13 10 24 22 28 35 11 89 66 113 114 58 118 11 260 -109 324 -52
28 -163 29 -215 3 -120 -62 -171 -203 -116 -322 23 -50 78 -107 115 -119 12
-4 21 -15 22 -28 0 -12 1 -197 1 -412 0 -214 2 -398 5 -408 2 -9 9 -15 14 -12
5 4 9 2 9 -3 0 -13 268 -280 275 -274 3 3 5 0 5 -7 0 -14 91 -107 102 -103 5
1 8 -5 8 -13 0 -8 4 -15 9 -15 6 0 10 -286 10 -732 0 -507 3 -734 11 -736 5
-2 9 -7 7 -10 -2 -4 8 -18 21 -32 14 -14 21 -19 17 -11 -5 9 -4 12 3 7 7 -4
12 -14 12 -22 0 -8 7 -14 17 -14 9 0 14 -2 11 -5 -7 -7 140 -155 154 -155 6 0
9 -2 6 -5 -3 -3 37 -49 90 -101 l95 -94 0 -875 c0 -481 4 -872 9 -869 4 3 8 0
8 -6 0 -13 102 -116 113 -112 4 1 7 -2 7 -8 0 -11 48 -60 59 -60 4 0 14 -11
21 -25 7 -14 19 -25 27 -25 7 0 12 -3 11 -7 -3 -10 60 -73 73 -73 5 0 8 -3 6
-8 -1 -4 27 -36 63 -71 l65 -64 0 -1158 0 -1158 233 -234 c128 -128 235 -231
237 -228 3 2 5 -2 5 -11 0 -8 11 -21 25 -28 14 -7 23 -15 21 -17 -6 -6 56 -68
66 -65 4 1 8 -3 8 -8 0 -6 23 -33 50 -60 28 -27 50 -46 50 -42 0 4 8 -5 18
-19 16 -25 17 -70 17 -565 l0 -539 -123 -3 -122 -3 0 412 0 412 -377 378 -378
377 0 1029 -1 1029 -272 272 -272 272 1 710 0 710 -248 248 -249 248 1 736 0
737 -230 230 -231 230 1 391 0 391 -255 256 -256 255 25 50 c49 99 31 208 -46
284 -120 119 -318 83 -389 -71 -56 -120 -9 -258 111 -323 48 -26 169 -23 224
6 l44 23 249 -248 248 -248 0 -392 0 -393 230 -230 230 -230 0 -737 0 -738
250 -249 250 -249 0 -711 0 -711 273 -272 272 -272 -1 -1027 -1 -1028 376
-376 376 -377 0 -399 0 -399 -122 -3 -122 -3 0 288 c0 158 -1 294 -1 300 0 7
-184 197 -410 423 l-410 410 0 900 0 900 -192 192 -193 193 -393 0 -393 0
-138 140 -138 140 1 641 1 641 148 148 147 148 0 557 0 556 -212 212 -212 212
-70 1 c-39 0 -117 0 -174 -1 l-102 -1 -130 128 -130 129 0 574 -1 575 -115
115 c-91 91 -114 119 -109 135 42 134 -22 269 -148 312 -194 67 -376 -113
-312 -308 23 -68 88 -133 154 -153 49 -14 90 -15 150 -1 32 7 37 4 122 -81
l89 -89 0 -573 0 -573 179 -178 179 -178 174 0 174 0 162 -162 c89 -89 162
-165 163 -169 5 -40 3 -943 -3 -959 -4 -12 -71 -85 -150 -163 l-142 -143 -1
-711 -1 -711 186 -188 186 -187 394 0 393 -1 144 -143 143 -143 0 -900 0 -900
412 -412 413 -412 0 -262 0 -262 -122 -3 -123 -3 0 137 0 136 -470 470 -470
470 0 677 0 676 -188 188 -187 187 -409 0 -408 0 -192 192 -191 192 0 1107 0
1106 -212 213 -213 213 0 316 0 316 -185 185 -185 185 0 328 0 329 -97 98
c-166 167 -159 157 -141 177 41 47 49 174 14 240 -70 136 -255 176 -370 81
-115 -95 -125 -258 -21 -362 77 -76 185 -93 285 -44 l55 28 116 -116 115 -115
1 -331 0 -330 187 -187 186 -186 0 -317 0 -316 213 -214 212 -213 0 -1105 -1
-1105 204 -204 203 -204 410 0 410 0 175 -175 174 -174 0 -677 0 -676 470
-470 470 -470 0 -127 0 -128 -120 0 -120 0 0 -225 0 -225 -65 0 c-84 -1 -469
-1 -495 0 -11 0 -19 6 -18 13 2 6 -4 11 -12 9 -8 -2 -12 0 -8 4 11 10 -12 35
-25 27 -6 -3 -7 -1 -3 6 4 6 -1 14 -14 19 -12 4 -22 12 -23 17 -1 6 -6 9 -10
7 -5 -1 -6 2 -3 7 7 10 -11 26 -29 26 -5 0 -10 5 -10 10 0 19 -16 35 -27 29
-6 -4 -8 -3 -5 3 3 5 -9 22 -26 37 l-32 28 2 434 c2 430 2 435 -19 459 -12 13
-25 22 -30 19 -5 -3 -7 -2 -6 3 4 13 -114 129 -126 125 -6 -2 -8 0 -4 3 9 10
-114 134 -126 127 -5 -3 -6 -1 -3 5 7 11 -28 44 -38 35 -4 -4 -5 0 -3 8 2 8
-3 14 -10 12 -8 -1 -11 1 -8 6 3 5 -3 15 -12 23 -16 13 -17 55 -17 498 l0 483
-200 201 -200 201 -492 1 -491 0 -166 165 -166 165 0 958 0 958 -195 195 -195
195 -1 529 c-1 292 -2 534 -3 539 -2 13 -16 26 -29 26 -7 0 -12 5 -12 10 0 18
-16 36 -26 29 -5 -3 -8 -2 -7 3 4 12 -44 63 -59 63 -7 0 -12 6 -10 13 1 6 -4
11 -11 9 -8 -1 -11 2 -8 7 8 12 -18 33 -29 23 -5 -4 -5 -2 -2 4 8 14 -17 37
-27 26 -4 -4 -6 -2 -4 3 2 6 -1 11 -7 12 -5 1 -13 11 -17 23 -5 13 -13 18 -19
14 -7 -4 -9 -3 -6 3 7 11 -10 31 -28 32 -5 1 -10 4 -10 9 0 15 -17 32 -26 26
-5 -3 -8 -2 -7 3 2 4 -1 9 -7 10 -5 1 -13 11 -17 23 -4 12 -11 19 -16 16 -4
-2 -8 86 -7 197 l0 202 -102 103 c-98 97 -102 103 -92 130 6 15 11 51 10 80
-2 200 -233 312 -392 189 -102 -79 -124 -231 -49 -336 57 -79 177 -120 265
-91 l37 12 79 -78 79 -79 0 -192 0 -193 198 -198 197 -198 -1 -535 -1 -534
196 -198 196 -197 0 -955 0 -955 214 -214 214 -214 490 0 491 -1 154 -154 154
-154 1 -483 0 -483 200 -200 199 -199 1 -436 0 -435 171 -172 172 -172 309 0
310 0 3 -56 c3 -55 3 -55 40 -62 20 -4 52 -16 71 -27 31 -20 71 -71 71 -93 0
-13 -1015 -14 -1027 -1 -5 6 -2 6 7 1 13 -8 13 -6 1 8 -7 9 -17 15 -21 12 -5
-3 -11 4 -15 14 -3 11 -15 23 -26 26 -10 4 -19 12 -19 19 0 16 -66 77 -74 69
-3 -4 -6 -1 -6 5 0 13 -60 77 -60 65 0 -4 -6 3 -13 16 -6 13 -15 22 -19 20 -4
-2 -18 12 -31 31 -13 19 -29 34 -35 32 -7 -1 -11 4 -10 10 2 7 -2 12 -9 11 -6
-2 -15 6 -18 17 -3 10 -15 22 -26 25 -10 4 -17 11 -14 16 4 5 2 9 -3 9 -5 0
-9 175 -9 400 l0 401 -289 289 -289 289 0 261 0 262 -29 29 c-16 16 -33 29
-37 29 -4 0 -11 9 -14 20 -3 11 -12 20 -20 20 -8 0 -17 9 -20 20 -3 11 -13 20
-21 20 -8 0 -14 7 -14 16 0 8 -4 12 -10 9 -5 -3 -10 0 -10 8 0 8 -11 22 -24
31 -35 22 -75 64 -68 70 3 3 -2 6 -11 6 -9 0 -17 6 -17 14 0 8 -9 18 -21 21
-11 4 -18 9 -15 12 3 3 -4 13 -15 22 -18 14 -76 16 -573 16 l-552 0 -30 37
c-16 20 -39 42 -51 49 -13 7 -23 19 -23 27 0 7 -9 16 -20 19 -11 3 -17 9 -14
14 3 5 -2 9 -10 9 -9 0 -16 4 -16 8 0 11 -161 172 -172 172 -4 0 -8 6 -8 14 0
8 -9 18 -20 21 -11 4 -18 9 -16 13 2 4 -11 18 -30 32 -18 14 -34 31 -34 38 0
7 -4 10 -10 7 -5 -3 -10 1 -10 10 0 9 -8 19 -19 22 -10 2 -24 15 -31 29 -7 13
-17 21 -21 19 -4 -3 -10 4 -14 15 -3 11 -12 20 -19 20 -8 0 -18 12 -24 28 -7
18 -10 448 -10 1344 1 1238 0 1318 -16 1343 -10 15 -20 24 -23 21 -4 -3 -11 4
-18 17 -6 12 -17 21 -23 19 -7 -1 -12 2 -12 6 0 12 -109 129 -110 117 0 -5 -6
1 -13 15 -8 14 -19 24 -25 23 -6 -2 -14 6 -17 17 -4 11 -13 20 -21 20 -8 0
-13 4 -12 10 2 5 -24 34 -56 64 l-59 54 0 319 c0 315 -4 347 -34 343 -4 -1
-10 8 -15 19 -4 12 -19 26 -33 31 -14 5 -25 12 -25 15 0 4 6 3 13 -1 6 -4 3 2
-8 13 -11 11 -23 19 -27 16 -5 -2 -8 3 -8 12 0 9 -4 13 -10 10 -17 -11 -11 16
16 71 95 195 -90 408 -294 340 -200 -67 -226 -336 -43 -444 39 -23 58 -27 121
-27 60 0 82 4 111 23 20 12 41 22 47 22 5 0 42 -33 81 -72 l71 -73 0 -315 1
-315 202 -202 202 -202 0 -1335 c-1 -1089 1 -1336 12 -1336 7 0 12 -6 11 -12
-2 -7 3 -12 10 -10 8 1 11 -2 8 -7 -3 -5 2 -15 11 -22 14 -12 16 -12 8 0 -5
10 -4 12 3 7 7 -4 12 -14 12 -22 0 -8 7 -14 15 -14 8 0 14 -6 13 -12 -2 -7 3
-12 10 -10 6 1 11 -1 10 -5 -4 -11 202 -219 213 -215 5 1 9 -5 9 -13 0 -8 3
-15 8 -15 4 0 18 -10 32 -23 14 -12 19 -18 10 -12 -8 5 42 -46 111 -115 l125
-125 550 0 549 0 170 -171 171 -171 -2 -249 c-1 -193 2 -254 13 -271 17 -29
151 -163 163 -163 5 0 12 -9 15 -20 4 -11 10 -18 15 -15 5 3 11 -3 15 -14 3
-11 13 -25 22 -33 14 -11 16 -11 9 2 -4 8 0 6 8 -4 9 -11 16 -24 16 -29 0 -4
4 -6 9 -2 5 3 12 -3 16 -14 3 -11 13 -25 22 -33 14 -11 16 -11 8 1 -5 10 -4
12 3 7 7 -4 12 -11 12 -17 0 -12 68 -78 74 -72 2 2 7 -5 11 -16 3 -12 10 -19
15 -16 5 3 11 -3 15 -14 3 -11 13 -25 22 -33 14 -11 16 -11 8 1 -5 10 -4 12 3
7 7 -4 12 -11 12 -17 0 -10 67 -79 72 -74 2 2 3 -180 3 -403 l0 -407 44 -42
c24 -24 47 -43 52 -43 5 0 9 -6 9 -14 0 -8 9 -18 20 -21 11 -4 18 -10 15 -14
-2 -4 7 -14 20 -21 14 -7 25 -18 25 -24 0 -6 14 -20 30 -31 16 -11 30 -23 30
-26 0 -4 44 -50 99 -104 l99 -98 518 -1 519 -1 -4 -35 c-8 -89 -94 -170 -178
-170 -7 0 -13 -9 -13 -20 0 -20 -7 -20 -462 -20 l-463 0 -387 388 -388 388 0
337 0 336 -332 333 -333 333 -543 1 -543 0 -244 244 -245 244 -238 1 c-187 0
-242 3 -255 14 -10 7 -17 10 -18 5 0 -5 -4 1 -9 14 -5 12 -17 22 -25 22 -9 0
-14 4 -11 8 6 10 -45 58 -57 54 -5 -1 -6 1 -3 6 6 10 -44 58 -56 54 -5 -1 -8
5 -8 13 0 9 -6 18 -13 20 -10 4 -12 151 -12 712 l0 706 -35 36 c-19 20 -38 35
-42 33 -5 -1 -8 2 -8 7 0 6 -80 90 -177 188 l-178 178 2 960 c0 528 2 966 2
973 1 6 7 12 14 12 23 0 97 70 118 113 45 86 26 203 -43 277 -65 68 -157 91
-252 63 -63 -19 -136 -89 -154 -149 -35 -120 13 -245 114 -297 l31 -16 1
-1002 c0 -550 2 -1003 4 -1005 2 -2 100 -101 219 -221 l216 -218 -2 -700 -1
-700 160 -162 160 -163 242 0 242 0 40 -39 c22 -22 43 -36 47 -33 4 4 5 2 3
-4 -1 -6 88 -101 199 -212 l202 -201 542 0 542 0 285 -284 284 -285 0 -336 -1
-337 438 -437 437 -438 485 1 c266 1 490 -1 497 -3 9 -3 12 -37 12 -123 0
-106 -2 -119 -17 -120 -135 -5 -1155 0 -1161 6 -4 5 0 4 8 0 8 -5 -10 16 -40
47 -30 31 -58 54 -62 51 -5 -2 -8 1 -8 6 0 18 -42 61 -53 54 -6 -3 -7 -1 -3 5
4 6 -5 18 -21 26 -15 8 -24 15 -19 16 5 0 3 7 -4 15 -7 8 -17 12 -23 8 -5 -3
-8 -2 -5 3 7 11 -17 35 -26 27 -3 -4 -6 -1 -6 5 0 19 -42 62 -53 55 -6 -3 -7
-1 -3 5 4 6 -4 17 -18 24 -14 7 -25 16 -25 21 -1 4 -4 7 -8 6 -4 0 -11 9 -15
21 -4 12 -12 18 -18 15 -6 -4 -9 -2 -8 3 2 5 -25 37 -59 70 -35 34 -63 58 -64
54 0 -4 -4 3 -10 16 -5 13 -13 20 -19 17 -6 -4 -9 -3 -8 2 4 12 -158 174 -166
166 -3 -4 -6 -1 -6 5 0 19 -42 62 -53 55 -6 -3 -7 -1 -3 5 4 6 -4 17 -18 24
-14 7 -25 16 -25 21 -1 4 -4 7 -8 8 -5 0 -11 9 -15 20 -4 11 -12 17 -18 14 -6
-4 -9 -1 -8 7 2 7 -3 12 -10 10 -6 -1 -11 2 -10 7 2 5 -1 10 -7 11 -5 0 -16
12 -23 26 -7 14 -18 22 -24 18 -6 -4 -8 -3 -5 3 7 11 -36 53 -55 53 -6 0 -8 3
-5 6 8 8 -57 74 -73 74 -6 0 -8 5 -5 10 3 5 2 10 -2 10 -5 0 -8 102 -8 228 l0
227 -109 110 c-61 61 -114 109 -118 107 -4 -1 -7 4 -6 10 2 7 -3 12 -10 10 -6
-1 -11 2 -10 6 4 12 -82 98 -94 94 -4 -1 -7 4 -6 10 2 7 -3 12 -10 10 -6 -1
-11 4 -10 10 2 10 -115 13 -557 15 -392 1 -561 5 -563 12 -2 6 -10 11 -18 11
-8 0 -14 3 -14 8 0 10 -140 152 -150 152 -5 0 -10 4 -12 10 -5 15 -219 230
-229 230 -5 0 -9 4 -9 9 0 6 -100 9 -247 8 l-248 -2 -88 88 c-48 48 -92 87
-98 87 -5 0 -8 3 -5 8 5 9 -101 112 -108 104 -3 -3 -6 0 -6 7 0 6 -52 64 -117
127 l-116 115 0 629 0 629 -287 286 -287 286 0 583 -1 583 49 12 c134 35 211
199 156 331 -20 46 -79 106 -125 126 -93 41 -219 11 -285 -67 -115 -133 -49
-346 120 -392 24 -6 43 -16 44 -22 0 -5 1 -271 1 -589 l1 -579 88 -87 c48 -48
90 -85 93 -82 4 3 6 0 6 -7 0 -14 30 -47 31 -34 0 4 4 -2 10 -15 5 -13 13 -20
19 -17 6 4 9 3 8 -2 -3 -12 107 -123 122 -123 7 0 11 -2 8 -6 -8 -7 105 -122
115 -117 4 2 7 -1 7 -7 0 -15 26 -41 34 -33 3 4 6 -1 6 -9 0 -9 6 -18 13 -20
9 -4 12 -140 13 -635 1 -603 2 -631 20 -656 10 -15 27 -29 37 -32 9 -4 17 -13
17 -21 0 -8 4 -13 9 -9 5 3 12 -4 16 -15 3 -11 13 -20 21 -20 8 0 14 -6 14
-14 0 -8 9 -18 20 -21 11 -3 20 -10 20 -14 0 -11 80 -91 91 -91 5 0 9 -6 9
-14 0 -8 9 -18 20 -21 11 -3 20 -10 20 -15 0 -11 141 -150 153 -150 4 0 5 -4
2 -10 -3 -5 1 -10 9 -10 8 0 18 -9 21 -20 3 -11 12 -20 20 -20 7 0 15 -9 18
-20 6 -23 -15 -21 307 -21 198 0 244 -7 255 -38 3 -9 21 -27 40 -41 19 -14 37
-32 40 -41 3 -9 17 -22 30 -29 14 -7 25 -17 25 -21 0 -10 68 -77 74 -72 2 3 7
-5 11 -16 3 -12 13 -21 21 -21 8 0 14 -6 14 -14 0 -8 9 -18 20 -21 11 -3 20
-10 20 -14 0 -11 80 -91 90 -91 5 0 10 -5 12 -11 3 -8 168 -11 566 -11 309 0
560 -3 557 -7 -5 -9 46 -57 58 -53 4 1 6 -2 5 -6 -4 -12 223 -238 235 -234 5
1 6 -1 3 -6 -3 -5 5 -18 17 -28 22 -19 22 -24 22 -246 l0 -227 582 -582 582
-582 585 0 586 0 0 -122 c0 -90 -3 -124 -12 -127 -23 -7 -1323 -2 -1346 6 -12
4 -20 11 -17 16 3 5 -8 16 -25 25 -16 8 -30 18 -30 21 0 3 6 2 13 -1 6 -4 3 1
-7 9 -11 9 -24 16 -29 16 -4 0 -5 4 -2 10 3 6 0 10 -8 10 -8 0 -21 8 -28 18
-13 16 -12 16 6 2 11 -8 -1 6 -27 30 -26 25 -55 51 -65 58 -10 7 -11 10 -3 6
8 -3 2 5 -14 18 -15 13 -40 37 -55 54 -14 16 -21 23 -16 14 9 -13 8 -13 -7 -1
-10 7 -18 20 -18 27 0 7 -12 20 -27 28 -16 8 -25 15 -22 16 8 0 -64 73 -99
101 -14 10 -22 19 -18 19 10 0 -29 36 -47 43 -9 3 -17 11 -17 17 0 12 -81 90
-93 90 -5 0 -6 4 -2 10 3 5 -8 16 -25 25 -16 8 -30 18 -30 21 0 3 6 2 13 -1 6
-4 3 1 -7 9 -11 9 -24 16 -29 16 -4 0 -5 5 -2 10 3 6 0 10 -8 10 -8 0 -21 8
-28 18 -13 16 -12 16 6 2 11 -8 -1 6 -27 30 -26 25 -55 51 -65 58 -10 7 -11
10 -3 6 8 -3 2 5 -14 18 -15 13 -40 37 -55 54 -14 16 -21 23 -16 14 9 -13 8
-13 -7 -1 -10 7 -18 20 -18 27 0 7 -12 20 -27 28 -16 8 -25 15 -21 16 9 0
-105 110 -115 110 -4 0 -6 3 -4 8 2 4 -8 18 -21 32 -14 14 -22 19 -18 13 4 -7
5 -13 2 -13 -3 0 -13 14 -21 31 -9 17 -19 28 -22 25 -4 -3 -12 3 -20 14 -14
20 -26 20 -657 20 l-643 0 -36 34 c-20 18 -33 36 -30 40 4 3 2 6 -4 6 -15 0
-163 147 -156 154 4 3 2 6 -4 6 -6 0 -58 46 -115 103 l-103 103 -397 -1 c-219
0 -398 3 -398 7 0 4 -9 10 -20 13 -11 4 -19 9 -18 13 2 4 -17 27 -42 52 -24
25 -41 39 -36 33 4 -7 5 -13 2 -13 -3 0 -13 14 -21 30 -9 17 -20 28 -25 25 -6
-4 -10 -2 -10 2 0 13 -108 121 -115 115 -3 -3 -5 -1 -5 5 0 13 -67 82 -74 76
-2 -2 -7 5 -11 16 -3 12 -9 21 -13 21 -4 0 -7 93 -7 208 1 212 0 236 -16 226
-5 -3 -9 -2 -9 3 0 4 -10 19 -21 33 -11 14 -17 18 -13 10 4 -9 -2 -6 -13 5
-11 11 -19 22 -17 24 2 2 -10 14 -26 26 -16 12 -27 25 -24 28 3 3 -12 19 -35
35 -22 16 -37 32 -34 36 3 3 2 6 -3 6 -6 0 -19 7 -30 16 -10 8 -13 12 -5 8 9
-5 12 -3 7 4 -4 7 -13 12 -21 12 -8 0 -17 5 -21 12 -5 7 -3 8 6 3 9 -5 11 -4
6 3 -4 7 -13 12 -21 12 -8 0 -17 5 -21 12 -5 7 -3 8 6 3 9 -5 11 -4 6 3 -4 7
-14 12 -23 12 -9 0 -13 3 -10 7 4 3 -6 16 -21 27 l-28 21 0 679 c1 671 1 679
-19 695 -12 9 -28 27 -38 41 -9 13 -17 21 -17 17 0 -4 -18 11 -41 32 -43 42
-43 44 -33 134 9 83 -10 140 -65 198 -118 122 -314 90 -393 -64 -58 -115 -3
-270 119 -327 39 -18 59 -21 113 -17 36 3 76 8 89 13 16 4 22 4 18 -3 -4 -6 5
-15 19 -22 14 -6 22 -16 19 -21 -3 -6 -2 -10 3 -10 5 0 23 -13 38 -29 l29 -30
0 -672 c0 -693 0 -699 37 -699 6 0 9 -2 6 -5 -7 -7 43 -65 57 -65 5 0 18 -14
27 -31 10 -17 22 -27 28 -24 5 3 10 -1 10 -9 0 -8 9 -18 20 -21 11 -4 19 -9
17 -13 -2 -4 8 -18 21 -32 14 -14 22 -18 18 -10 -4 8 0 6 8 -4 9 -11 16 -24
16 -30 0 -5 3 -6 7 -3 3 4 15 -7 25 -24 11 -17 28 -33 38 -36 11 -3 22 -14 25
-24 4 -11 10 -17 14 -15 4 3 7 -90 7 -207 -1 -206 0 -213 21 -234 12 -13 19
-23 15 -23 -4 0 7 -9 23 -20 17 -11 26 -20 22 -20 -4 0 -2 -6 5 -14 7 -8 15
-12 17 -10 2 2 14 -10 26 -26 12 -16 25 -27 28 -23 4 3 7 -2 7 -12 0 -10 3
-15 7 -12 3 4 15 -5 25 -20 10 -16 18 -24 18 -19 0 6 11 -5 25 -24 14 -19 25
-30 25 -25 0 5 11 -5 23 -23 13 -17 27 -29 30 -25 4 3 7 -2 7 -12 0 -10 3 -15
7 -12 3 4 17 -8 30 -25 12 -18 23 -28 23 -22 1 5 7 -2 15 -16 8 -14 14 -20 15
-15 0 6 9 -3 20 -20 11 -16 20 -26 20 -21 0 5 9 -2 19 -16 l19 -24 397 1 397
0 94 -93 c52 -51 94 -98 94 -103 0 -5 5 -9 10 -9 14 0 70 -55 70 -69 0 -6 4
-11 10 -11 10 0 150 -138 150 -149 0 -4 295 -7 655 -7 542 0 657 -2 667 -13
11 -11 10 -12 -1 -6 -9 5 -12 4 -7 -3 4 -7 14 -12 23 -12 9 0 13 -3 10 -7 -4
-3 8 -17 25 -30 18 -12 28 -23 23 -23 -5 0 6 -11 25 -25 19 -14 30 -25 24 -25
-5 -1 2 -7 16 -15 14 -8 21 -14 16 -15 -6 0 5 -11 24 -25 19 -14 30 -25 24
-25 -5 0 3 -8 19 -18 15 -10 25 -20 23 -23 -2 -2 2 -10 10 -17 8 -7 14 -9 14
-5 0 4 11 -7 23 -25 13 -17 27 -29 30 -25 4 3 7 -2 7 -12 0 -10 3 -15 7 -12 3
4 17 -8 30 -25 12 -18 23 -28 23 -22 1 5 7 -2 15 -16 8 -14 14 -20 15 -15 0 6
9 -3 20 -20 11 -16 20 -26 20 -21 0 6 11 -4 23 -22 13 -17 26 -29 30 -26 3 3
8 -4 12 -15 3 -12 9 -20 13 -18 4 2 19 -10 34 -25 15 -15 24 -28 20 -28 -3 0
8 -11 26 -23 17 -13 29 -27 25 -30 -3 -4 2 -7 12 -7 10 0 15 -3 12 -7 -4 -3 8
-17 25 -30 18 -12 28 -23 23 -23 -5 0 6 -11 25 -25 19 -14 30 -25 24 -25 -5
-1 2 -7 16 -15 14 -8 21 -14 16 -15 -6 0 5 -11 24 -25 19 -14 30 -25 24 -25
-5 0 3 -8 19 -18 15 -10 25 -20 23 -23 -2 -2 2 -10 10 -17 8 -7 14 -9 14 -5 0
4 11 -7 23 -25 13 -17 27 -29 30 -25 4 3 7 -2 7 -12 0 -10 3 -15 7 -12 3 4 17
-8 30 -25 12 -18 23 -28 23 -22 1 5 7 -2 15 -16 8 -14 14 -20 15 -15 0 6 9 -3
20 -20 11 -16 20 -26 20 -21 0 6 11 -4 23 -22 13 -17 26 -29 30 -26 3 3 8 -4
12 -15 3 -12 10 -19 14 -16 4 2 14 -7 21 -20 7 -14 17 -25 22 -25 5 0 15 -6
22 -12 10 -10 165 -13 714 -12 l702 1 0 -124 c0 -91 -3 -123 -12 -124 -18 -1
-1529 -1 -1548 0 -9 1 -264 250 -568 554 l-553 552 -835 0 c-460 0 -838 3
-841 8 -2 4 -9 5 -14 1 -5 -3 -8 -1 -7 3 4 13 -54 73 -64 67 -5 -3 -7 -1 -6 3
4 12 -162 179 -174 175 -4 -1 -7 2 -6 6 4 12 -83 98 -94 94 -5 -1 -7 2 -4 7 4
5 1 13 -5 17 -6 3 -291 6 -632 6 l-622 0 -27 29 c-15 16 -31 29 -36 29 -5 0
-12 9 -15 20 -3 11 -12 20 -21 20 -9 0 -16 4 -16 9 0 13 -56 71 -69 71 -6 0
-11 4 -11 10 0 12 -59 70 -71 70 -5 0 -9 7 -9 16 0 8 -4 12 -10 9 -5 -3 -10
-1 -10 5 0 7 -9 19 -20 28 -19 17 -20 30 -21 462 0 357 -3 447 -14 457 -7 6
-16 9 -20 5 -4 -4 -5 -2 -3 4 1 6 -24 42 -57 79 -33 37 -78 88 -100 113 -22
25 -53 59 -69 76 -16 17 -40 46 -53 63 -14 18 -30 30 -36 26 -5 -3 -8 -2 -4 3
3 5 -21 38 -53 74 -55 60 -58 66 -44 85 54 73 65 187 26 261 -77 148 -273 179
-391 63 -128 -127 -73 -352 99 -403 58 -18 132 -12 183 13 40 20 41 20 57 1 9
-11 20 -16 24 -12 4 4 6 2 4 -4 -1 -6 15 -31 37 -56 22 -25 65 -74 95 -108 30
-35 69 -77 85 -94 17 -17 43 -48 59 -68 15 -21 33 -35 39 -31 5 3 7 2 4 -4 -3
-5 16 -34 43 -63 l50 -54 0 -442 0 -442 147 -149 c80 -81 150 -147 155 -145 4
1 7 -4 6 -10 -2 -7 3 -12 10 -10 6 1 12 -4 12 -12 0 -8 6 -18 13 -23 6 -4 292
-8 635 -8 l622 0 194 -193 194 -194 837 0 838 0 72 -74 c40 -40 75 -70 79 -67
3 3 6 1 6 -5 0 -15 36 -52 51 -52 5 0 8 -3 6 -7 -6 -10 90 -103 97 -95 3 3 6
0 6 -6 0 -15 36 -52 51 -52 5 0 8 -3 6 -7 -6 -10 90 -103 97 -95 3 3 6 0 6 -6
0 -15 146 -163 154 -155 3 3 6 1 6 -5 0 -15 146 -163 154 -155 3 3 6 1 6 -5 0
-15 36 -52 51 -52 5 0 8 -3 6 -7 -6 -10 90 -103 97 -95 3 3 6 0 6 -6 0 -14
141 -156 158 -160 8 -1 366 -2 798 -2 l784 0 0 -125 0 -125 -879 0 -879 0 -33
35 c-18 18 -36 32 -41 29 -5 -3 -7 -1 -6 4 4 12 -462 478 -473 474 -5 -1 -8 2
-7 7 4 11 -142 157 -154 153 -5 -1 -7 1 -4 6 3 5 -6 19 -19 30 l-25 22 -1100
0 -1099 0 -201 200 -201 200 -708 0 -709 0 -235 235 -236 236 -153 -1 c-283
-2 -265 -3 -272 26 -4 14 -27 45 -52 70 -123 119 -318 84 -390 -71 -76 -163
43 -346 225 -345 79 1 172 55 207 123 l15 27 177 0 177 0 233 -232 232 -233
710 -1 710 -1 199 -199 199 -199 1101 -1 1101 0 112 -112 113 -112 -169 -168
-168 -167 -1130 0 -1130 0 -183 182 -183 183 -766 0 -765 0 -168 168 -168 167
-200 2 c-110 0 -203 2 -207 2 -4 1 -15 17 -24 36 -35 74 -133 126 -227 120
-204 -12 -302 -259 -161 -408 56 -59 88 -72 179 -72 71 0 85 3 123 28 37 24
94 89 104 118 2 5 74 10 172 10 l168 1 169 -169 168 -168 766 -1 766 0 177
-177 c97 -97 180 -179 184 -182 3 -4 547 -6 1208 -6 l1201 0 191 191 191 191
201 -201 c110 -110 206 -204 213 -208 6 -4 421 -7 922 -7 l911 1 0 -123 0
-122 -852 0 c-469 0 -869 0 -889 0 -33 -1 -60 -26 -413 -379 l-377 -377 -445
0 -445 0 -233 232 -232 233 -1265 0 -1265 0 -200 198 -199 199 -340 -1 c-187
-1 -347 0 -357 2 -9 2 -19 18 -22 36 -4 18 -19 53 -35 78 -63 99 -198 136
-306 84 -90 -44 -139 -124 -138 -225 2 -131 99 -229 234 -236 49 -3 68 1 116
26 68 35 100 72 124 143 l18 51 343 0 343 1 198 -198 197 -198 1265 0 1265 0
210 -210 c116 -116 210 -212 210 -213 0 -1 -279 -2 -621 -2 l-621 0 -200 -200
-200 -200 -706 1 -707 0 -240 -236 -240 -237 -377 1 c-237 1 -380 5 -386 11
-5 6 -14 30 -21 53 -24 84 -133 162 -226 162 -79 0 -180 -61 -216 -132 -48
-94 -34 -198 38 -278 90 -100 236 -108 337 -19 38 34 52 56 83 138 l9 25 392
0 392 1 232 233 233 232 710 0 710 0 200 200 200 200 1100 0 1100 0 379 379
379 379 879 0 878 1 0 -124 0 -123 -789 0 c-547 0 -794 -3 -807 -11 -11 -6
-14 -11 -9 -11 6 0 -3 -9 -18 -19 -16 -10 -29 -22 -30 -27 -1 -5 -4 -9 -7 -8
-5 0 -123 -120 -127 -130 -2 -3 -6 -7 -10 -8 -15 -6 -49 -43 -46 -50 2 -5 0
-8 -5 -8 -11 0 -142 -131 -142 -142 0 -5 -3 -7 -7 -5 -8 3 -52 -38 -53 -48 0
-3 -1 -4 -2 -3 -6 3 -74 -68 -74 -77 1 -5 -3 -10 -9 -9 -5 0 -33 -24 -62 -53
-28 -29 -48 -53 -45 -53 4 0 -6 -9 -21 -19 -16 -10 -29 -22 -30 -27 -1 -5 -4
-9 -7 -8 -5 0 -123 -120 -127 -130 -2 -3 -5 -6 -8 -6 -10 -1 -51 -45 -48 -52
2 -5 0 -8 -4 -8 -10 0 -102 -88 -132 -126 -12 -15 -21 -24 -21 -21 0 3 -12 -7
-27 -22 l-28 -27 -833 1 c-689 0 -835 -2 -841 -13 -4 -8 -11 -13 -15 -13 -11
2 -36 -26 -29 -33 4 -3 0 -6 -9 -6 -8 0 -25 -11 -38 -25 -13 -14 -19 -25 -14
-25 5 0 -2 -6 -16 -13 -14 -8 -24 -19 -23 -25 2 -7 -1 -12 -6 -12 -14 0 -81
-62 -76 -71 3 -4 -4 -10 -15 -14 -11 -3 -20 -13 -20 -21 0 -8 -5 -13 -12 -11
-6 1 -21 -12 -33 -30 -12 -18 -25 -30 -27 -27 -3 2 -11 -3 -19 -13 -12 -14
-12 -16 0 -8 10 5 12 4 7 -3 -4 -7 -14 -12 -22 -12 -8 0 -13 -3 -11 -7 3 -5
-278 -8 -623 -7 l-629 1 -104 -104 c-58 -57 -102 -103 -100 -103 3 0 -10 -13
-30 -29 -20 -15 -35 -30 -32 -32 2 -3 -9 -13 -26 -24 -16 -11 -32 -28 -35 -38
-3 -10 -8 -16 -11 -13 -3 3 -17 -9 -30 -25 l-26 -30 1 -440 c0 -251 -4 -442
-9 -445 -5 -3 -6 -10 -3 -16 4 -7 2 -8 -4 -4 -7 4 -12 1 -12 -8 0 -8 -5 -18
-12 -22 -7 -5 -8 -3 -3 7 5 8 -7 -1 -28 -20 -20 -19 -33 -39 -30 -45 3 -6 2
-8 -2 -3 -10 9 -85 -61 -85 -79 0 -7 -5 -16 -12 -20 -7 -5 -9 -2 -4 7 6 10 4
10 -6 -1 -8 -8 -20 -21 -28 -29 -12 -11 -12 -12 -1 -6 10 5 12 4 7 -4 -4 -6
-11 -9 -16 -6 -5 3 -11 1 -15 -5 -4 -6 -151 -10 -420 -10 l-415 0 -19 38 c-39
76 -118 121 -214 122 -139 0 -241 -103 -240 -246 2 -207 247 -314 405 -175 20
17 43 46 52 65 l16 33 449 1 449 0 90 90 c50 50 88 93 84 96 -3 3 0 6 7 6 16
0 174 160 179 180 1 8 3 207 4 442 l1 428 23 32 c13 17 24 28 24 24 0 -9 82
74 179 180 30 32 51 52 47 44 -4 -8 0 -6 8 4 15 19 37 19 636 20 341 0 620 3
620 8 0 4 3 7 8 6 10 -3 152 136 152 150 0 7 3 11 8 10 10 -4 72 57 72 71 0 6
3 10 8 9 10 -3 112 98 112 111 0 7 4 10 9 6 5 -3 12 -1 16 5 4 7 287 10 843
10 l837 0 554 554 554 554 758 0 759 0 0 -124 0 -124 -678 0 -678 0 -40 -36
c-21 -20 -32 -33 -24 -28 13 7 13 5 1 -9 -7 -9 -17 -15 -21 -12 -4 3 -14 -3
-21 -12 -12 -14 -12 -16 0 -8 10 5 12 4 7 -3 -4 -7 -14 -12 -21 -12 -8 0 -21
-14 -30 -30 -9 -17 -21 -30 -28 -30 -6 0 -23 -12 -37 -27 -14 -15 -19 -23 -12
-19 6 4 12 5 12 2 0 -3 -13 -12 -30 -21 -16 -9 -30 -22 -30 -30 0 -7 -5 -17
-12 -21 -7 -5 -9 -2 -4 7 4 8 0 5 -8 -5 -9 -11 -16 -24 -16 -29 0 -4 -4 -5
-10 -2 -5 3 -10 -1 -10 -9 0 -8 -5 -18 -12 -22 -7 -5 -8 -3 -3 7 5 8 -3 3 -18
-11 -15 -14 -27 -30 -27 -36 0 -6 -8 -18 -17 -25 -17 -13 -17 -13 -3 6 14 19
14 19 -2 6 -10 -7 -18 -19 -18 -27 0 -7 -5 -16 -12 -20 -7 -5 -9 -2 -4 7 4 8
0 5 -8 -5 -9 -11 -16 -24 -16 -29 0 -4 -4 -5 -10 -2 -5 3 -10 -1 -10 -9 0 -8
-5 -18 -12 -22 -7 -5 -8 -2 -3 7 4 8 -3 3 -16 -11 -13 -13 -29 -33 -34 -44 -6
-12 -21 -26 -35 -33 -13 -6 -30 -23 -37 -37 -8 -14 -19 -26 -26 -26 -7 0 -23
-12 -37 -27 -14 -15 -18 -23 -10 -18 13 8 13 6 1 -8 -7 -9 -17 -15 -21 -12 -4
3 -14 -3 -21 -12 -12 -14 -12 -16 0 -8 10 5 12 4 7 -3 -4 -7 -14 -12 -21 -12
-8 0 -21 -13 -30 -30 -9 -16 -21 -30 -28 -30 -6 0 -23 -12 -37 -27 -14 -15
-19 -23 -11 -18 10 5 12 4 7 -3 -4 -7 -14 -12 -22 -12 -8 0 -13 -4 -10 -9 3
-5 -2 -15 -11 -22 -14 -12 -16 -12 -8 1 5 8 -3 4 -18 -10 -15 -14 -27 -30 -27
-37 0 -7 -12 -18 -26 -26 -14 -7 -31 -24 -37 -37 -7 -14 -21 -29 -33 -35 -11
-5 -31 -21 -44 -34 -14 -13 -19 -20 -11 -16 9 5 12 4 7 -3 -4 -7 -14 -12 -22
-12 -8 0 -12 -4 -9 -10 3 -5 2 -10 -2 -10 -5 0 -18 -7 -29 -16 -10 -8 -12 -12
-4 -8 24 11 3 -8 -22 -21 -13 -6 -22 -17 -21 -23 2 -7 -1 -12 -5 -12 -5 0 -17
-7 -28 -16 -10 -8 -12 -13 -4 -9 12 5 12 4 -1 -7 -13 -10 -139 -13 -660 -12
l-643 0 -30 -28 c-16 -15 -32 -28 -37 -28 -4 0 -10 -9 -14 -20 -3 -11 -12 -19
-18 -17 -7 1 -11 -3 -10 -10 2 -6 -6 -15 -17 -18 -10 -3 -21 -14 -24 -23 -3
-9 -19 -26 -35 -37 -17 -11 -28 -21 -27 -23 6 -5 -59 -68 -66 -64 -5 2 -8 -1
-8 -6 0 -5 -25 -33 -55 -64 -30 -30 -55 -53 -55 -51 0 2 -11 -9 -24 -24 l-24
-28 -394 0 c-364 -1 -395 -2 -420 -19 -16 -10 -28 -24 -28 -32 0 -7 -13 -20
-30 -29 -16 -9 -30 -22 -30 -29 0 -7 -8 -20 -17 -27 -17 -13 -17 -13 -3 6 14
19 14 19 -2 6 -10 -7 -18 -19 -18 -27 0 -7 -5 -16 -12 -20 -7 -5 -8 -3 -3 7 5
8 -3 3 -18 -11 -15 -14 -27 -31 -27 -37 0 -7 -13 -19 -30 -28 -16 -9 -30 -22
-30 -30 0 -7 -5 -17 -12 -21 -7 -5 -8 -3 -3 7 5 8 -3 3 -18 -11 -15 -14 -27
-30 -27 -37 0 -6 -5 -15 -12 -19 -7 -5 -9 -2 -4 7 4 8 0 5 -8 -5 -9 -11 -16
-24 -16 -29 0 -4 -4 -5 -10 -2 -5 3 -10 -1 -10 -9 0 -8 -5 -18 -12 -22 -7 -5
-8 -2 -3 7 4 8 -6 -1 -24 -19 -26 -28 -31 -41 -32 -85 0 -29 -1 -128 -1 -220
0 -92 -3 -166 -5 -163 -7 7 -103 -90 -103 -104 0 -6 -3 -9 -7 -7 -10 6 -34
-19 -26 -27 4 -3 1 -6 -6 -6 -15 0 -96 -81 -93 -92 1 -5 -2 -8 -8 -8 -5 0 -38
-29 -73 -63 l-63 -64 0 -226 c1 -224 1 -226 -21 -238 -12 -7 -20 -16 -18 -20
3 -4 -3 -10 -12 -13 -10 -3 -27 -19 -38 -35 -11 -17 -21 -29 -23 -27 -5 6
-148 -139 -144 -146 2 -5 -4 -8 -13 -8 -9 0 -13 -5 -10 -10 3 -6 2 -10 -4 -10
-5 0 -26 -17 -45 -37 l-35 -38 -275 0 -276 -1 -15 52 c-10 35 -29 66 -58 97
-163 167 -438 36 -414 -197 12 -121 98 -202 226 -213 106 -10 209 59 245 163
8 24 12 44 8 44 -4 0 -2 4 5 8 7 4 135 7 285 7 150 0 275 2 278 5 3 3 28 26
57 53 29 26 51 47 49 47 -2 0 12 17 33 38 20 21 39 36 43 35 4 -2 9 6 13 17 4
11 9 19 13 18 4 -2 37 27 73 64 36 38 64 68 62 68 -2 0 8 10 22 23 l27 23 0
216 c1 119 4 222 9 229 4 8 91 97 192 199 l184 185 -2 208 -1 207 213 213
c118 116 216 214 219 217 3 3 182 6 397 6 216 1 397 2 404 3 6 0 15 10 18 22
4 11 9 18 12 15 7 -7 33 20 33 35 0 7 3 9 7 6 7 -7 53 39 53 54 0 5 6 8 13 6
6 -1 11 4 10 10 -2 7 3 12 10 10 6 -1 11 4 10 11 -2 6 1 12 6 12 15 0 61 46
54 53 -3 4 1 7 10 7 8 0 19 9 22 20 4 11 9 19 13 17 4 -2 23 12 42 31 19 20
26 29 16 21 -15 -10 -18 -10 -12 -1 4 7 19 17 32 22 13 5 23 13 22 17 -2 5 -1
8 2 8 10 0 57 50 54 56 -2 3 289 6 647 6 l651 0 633 634 634 634 658 -2 c362
0 664 -1 671 -2 9 -1 12 -33 12 -124 l0 -123 -585 0 -586 0 -598 -598 -598
-598 0 -228 0 -227 -159 -159 -159 -159 -552 0 -553 0 -222 -221 -223 -221
-247 1 -248 2 -298 -301 -299 -300 1 -624 1 -625 -101 -103 -100 -103 -386 0
-386 0 -11 29 c-7 15 -29 44 -49 64 -154 150 -412 40 -412 -175 0 -142 120
-252 263 -242 78 6 141 45 190 119 l27 40 416 1 415 0 150 150 149 149 0 627
c0 414 3 629 10 633 6 4 7 12 4 18 -4 7 -4 9 1 5 11 -10 37 11 29 23 -3 5 0 8
7 7 7 -2 13 4 14 12 0 8 5 15 12 15 14 0 28 13 28 26 0 5 3 8 6 7 11 -5 39 24
33 33 -3 5 0 8 8 7 7 -2 12 3 11 9 -2 7 2 12 9 10 7 -1 12 4 13 11 0 6 5 12
10 13 17 1 35 21 29 30 -3 5 0 8 8 7 7 -2 12 3 10 10 -1 8 1 11 6 8 12 -7 54
38 45 48 -5 4 -1 6 7 4 9 -2 14 3 12 12 -2 8 0 12 4 8 9 -10 35 12 28 23 -3 5
0 8 8 7 7 -2 12 3 11 9 -2 7 2 12 9 10 7 -1 12 5 13 13 0 8 5 15 12 15 14 0
28 13 28 26 0 5 5 9 10 10 17 1 35 21 29 30 -3 5 0 8 8 7 7 -2 12 2 11 8 -2 8
51 12 185 12 371 2 323 -4 376 47 25 25 46 50 46 55 0 6 3 9 8 8 9 -3 247 235
244 245 -1 4 2 7 8 7 5 0 27 18 49 40 l39 40 554 0 553 0 207 208 207 207 0
228 1 227 550 550 550 550 550 0 550 0 0 -124 0 -123 -447 -1 c-247 0 -457 -1
-468 -2 -11 0 -33 -12 -50 -26 -16 -15 -23 -23 -15 -19 8 4 4 -3 -10 -14 -14
-11 -29 -21 -34 -21 -5 0 -6 -3 -3 -7 4 -3 -4 -14 -19 -23 -14 -10 -26 -21
-27 -26 -1 -5 -4 -9 -7 -9 -3 1 -21 -15 -40 -34 -19 -19 -28 -31 -20 -27 8 4
4 -2 -10 -13 -14 -11 -29 -21 -34 -21 -5 0 -6 -3 -3 -7 4 -3 -4 -14 -19 -23
-14 -10 -25 -20 -25 -24 1 -3 -1 -6 -4 -6 -3 0 -30 -27 -60 -60 -30 -33 -55
-56 -55 -52 0 4 -9 -6 -20 -23 -11 -16 -20 -27 -20 -23 0 4 -27 -22 -60 -57
-33 -35 -60 -61 -60 -57 0 4 -8 -5 -18 -21 -10 -15 -20 -26 -23 -25 -2 2 -22
-15 -44 -36 -22 -22 -33 -36 -25 -32 8 4 4 -2 -10 -13 -14 -11 -29 -21 -34
-21 -5 0 -6 -3 -3 -7 4 -3 -4 -14 -19 -23 -14 -10 -25 -20 -25 -24 1 -3 -1 -5
-3 -3 -1 1 -16 -13 -31 -31 l-28 -34 0 -339 c0 -277 -3 -339 -14 -339 -7 0
-13 -4 -13 -9 0 -4 -130 -138 -289 -297 l-290 -289 -543 0 c-541 -1 -544 -1
-565 -22 -12 -12 -19 -24 -16 -27 4 -3 -1 -6 -11 -6 -9 0 -21 -10 -26 -22 -5
-13 -9 -20 -9 -15 -1 10 -41 -31 -41 -42 0 -6 -5 -13 -12 -17 -7 -5 -8 -3 -3
6 5 9 4 11 -3 6 -7 -4 -12 -14 -12 -22 0 -8 -4 -12 -10 -9 -5 3 -10 -1 -10
-10 0 -9 -4 -13 -10 -10 -5 3 -10 -2 -10 -11 0 -10 -3 -15 -6 -11 -8 8 -34
-18 -34 -33 0 -6 -4 -8 -10 -5 -6 3 -10 -1 -10 -10 0 -9 -4 -13 -10 -10 -5 3
-10 -1 -10 -10 0 -9 -3 -14 -7 -12 -10 5 -43 -30 -35 -37 3 -3 -2 -6 -12 -6
-9 0 -14 -4 -11 -10 3 -6 -1 -10 -10 -10 -9 0 -13 -5 -10 -10 3 -6 -1 -10 -10
-10 -8 0 -20 -10 -25 -22 -5 -13 -9 -20 -9 -15 -1 11 -41 -31 -41 -44 0 -5 -3
-8 -7 -6 -8 5 -34 -18 -28 -24 2 -2 -109 -4 -246 -4 -232 1 -249 0 -255 -17
-3 -10 -9 -16 -14 -13 -4 3 -14 -3 -21 -12 -12 -14 -12 -16 1 -8 13 8 13 7 1
-8 -8 -10 -16 -15 -19 -12 -8 8 -72 -57 -72 -73 0 -7 -4 -11 -8 -8 -5 3 -31
-17 -57 -44 -27 -28 -45 -50 -40 -50 6 0 -1 -6 -15 -13 l-25 -13 -1 -709 0
-709 -421 -421 c-231 -231 -429 -428 -440 -438 -19 -17 -22 -16 -68 4 -63 28
-137 28 -201 0 -64 -29 -92 -55 -120 -116 -77 -162 36 -344 215 -347 197 -3
316 214 206 376 l-25 37 52 51 c29 28 47 47 41 44 -7 -4 -13 -5 -13 -1 0 3 12
10 26 15 15 6 22 14 18 22 -4 7 -3 8 4 4 8 -4 16 3 22 18 5 14 12 26 15 26 4
0 3 -6 -1 -13 -5 -8 -3 -8 9 2 9 7 14 17 11 22 -3 5 0 8 8 7 7 -2 12 3 11 9
-2 7 3 12 10 10 6 -1 11 4 10 11 -2 6 1 12 7 12 17 0 60 43 53 53 -3 6 -1 7 5
3 8 -4 16 3 22 18 5 14 12 26 15 26 4 0 3 -6 -1 -12 -5 -9 -3 -9 9 1 9 7 14
17 11 22 -3 5 0 8 8 7 7 -2 12 3 11 9 -2 7 3 12 10 10 6 -1 11 4 10 11 -2 6 1
12 7 12 17 0 60 43 53 53 -3 6 -2 7 4 4 10 -7 80 62 76 75 -2 4 3 7 10 5 6 -1
11 4 9 11 -1 8 2 11 7 8 5 -3 15 2 22 11 10 12 10 14 2 9 -7 -4 -13 -5 -13 -1
0 3 12 10 26 15 14 6 22 15 19 20 -4 6 -1 9 7 8 7 -2 12 3 11 10 -2 6 1 12 7
12 16 0 60 42 54 52 -3 5 0 7 8 6 7 -2 12 3 10 10 -1 8 2 11 7 8 5 -3 15 2 22
11 10 12 10 14 2 9 -7 -4 -13 -5 -13 -1 0 3 12 10 26 15 15 6 22 14 18 22 -4
7 -3 8 4 4 8 -4 16 3 22 18 5 14 12 26 15 26 4 0 3 -6 -1 -12 -5 -9 -3 -9 9 1
9 7 14 17 11 22 -3 5 0 8 8 7 7 -2 12 3 10 10 -1 8 2 11 6 8 5 -3 17 3 26 12
14 17 16 89 16 737 0 395 3 715 6 712 3 -3 61 50 129 118 l124 123 245 -1
c135 -1 246 1 246 4 0 11 109 117 115 111 3 -3 5 2 5 12 0 9 4 15 8 12 5 -3
15 4 23 15 25 36 78 87 83 81 3 -3 6 -1 6 5 0 5 16 26 35 46 19 20 35 33 35
29 0 -4 8 5 18 21 10 15 22 24 25 20 4 -3 7 -1 7 6 0 15 67 80 75 73 3 -3 5 2
5 12 0 9 4 15 9 11 5 -3 12 3 15 13 6 16 36 17 548 17 436 0 544 3 555 13 7 7
13 11 13 7 0 -3 11 5 24 17 13 13 21 26 19 31 -2 4 3 7 11 7 9 0 16 7 16 16 0
8 4 12 10 9 5 -3 10 1 10 9 0 9 6 16 13 16 8 0 26 17 40 37 15 21 27 34 27 30
0 -5 7 -2 15 7 8 8 15 20 15 26 0 6 3 9 8 7 9 -6 33 19 25 27 -4 3 0 6 8 6 17
0 50 36 42 44 -4 3 1 6 10 6 10 0 17 7 17 16 0 8 5 12 10 9 6 -3 10 1 10 10 0
9 4 14 9 10 5 -3 12 4 16 15 4 11 9 18 13 16 10 -5 32 20 25 28 -4 3 1 6 10 6
9 0 23 12 31 28 8 15 15 23 16 19 0 -4 6 -2 14 5 8 7 12 16 9 21 -2 4 2 7 9 7
16 0 49 36 41 44 -4 3 1 6 10 6 10 0 17 7 17 16 0 8 5 12 10 9 6 -3 10 1 10
10 0 9 9 19 20 22 11 3 21 10 21 17 1 6 2 161 3 345 1 258 4 335 14 339 6 2
10 8 6 13 -3 5 -1 9 4 9 4 0 26 16 48 36 21 20 32 33 24 28 -13 -7 -13 -5 -1
9 7 9 16 15 20 13 9 -5 31 21 24 28 -4 3 -2 6 4 6 12 0 68 50 56 50 -4 1 4 8
20 16 15 8 27 21 27 29 0 7 5 17 12 21 7 5 8 3 3 -7 -5 -8 3 -3 16 11 13 14
35 36 49 49 14 13 19 20 11 16 -9 -5 -12 -4 -7 3 4 7 14 12 22 12 8 0 13 4 10
9 -3 4 6 13 19 19 14 7 25 18 25 26 0 8 5 18 12 22 7 5 8 3 3 -7 -5 -8 3 -3
16 11 13 14 35 36 49 49 14 13 18 21 10 17 -8 -4 -7 -1 3 6 10 7 35 28 55 47
20 19 28 28 17 20 -20 -13 -20 -13 -1 8 10 13 21 21 25 19 9 -6 31 21 24 28
-4 3 -2 6 3 6 6 0 37 25 69 57 33 31 53 52 45 48 -13 -8 -13 -6 -1 8 7 9 17
15 21 12 4 -3 14 3 21 12 12 14 12 16 -1 9 -8 -4 -6 0 4 8 11 9 24 16 29 16 4
0 6 3 4 8 -4 5 872 8 916 3 4 -1 6 -56 5 -123 l-3 -123 -415 0 c-347 0 -418
-2 -432 -14 -9 -8 -14 -19 -11 -24 3 -6 1 -7 -4 -4 -13 8 -46 -27 -36 -37 5
-4 3 -6 -2 -4 -14 4 -211 -191 -207 -206 2 -6 1 -8 -3 -4 -10 9 -161 -141
-157 -156 2 -6 0 -8 -4 -3 -4 4 -16 0 -26 -10 -17 -15 -18 -41 -18 -416 l0
-399 -289 -289 -290 -289 0 -261 -1 -261 -152 -152 -153 -152 -547 1 -548 0
-335 -335 -335 -335 0 -1009 c0 -555 -3 -1006 -6 -1003 -8 8 -44 -25 -38 -35
3 -5 0 -7 -8 -6 -7 2 -12 -4 -10 -12 2 -8 0 -12 -4 -8 -10 11 -35 -12 -27 -26
3 -6 3 -8 -2 -4 -11 11 -36 -12 -28 -26 3 -6 3 -8 -1 -4 -11 9 -46 -23 -39
-36 3 -6 3 -8 -2 -4 -11 10 -37 -11 -29 -23 3 -5 1 -8 -4 -7 -11 4 -88 -73
-84 -84 1 -5 -1 -7 -6 -4 -10 6 -78 -64 -75 -76 2 -5 -3 -7 -10 -5 -6 1 -11
-4 -9 -11 1 -8 -2 -11 -7 -8 -12 8 -33 -18 -23 -29 4 -5 2 -5 -4 -2 -13 7 -37
-16 -29 -26 3 -4 2 -5 -1 -3 -10 7 -43 -27 -37 -37 3 -6 1 -7 -4 -4 -13 8 -36
-17 -25 -27 4 -4 2 -6 -4 -4 -12 4 -90 -71 -87 -84 2 -4 -3 -7 -10 -5 -6 1
-11 -4 -9 -11 1 -8 -2 -11 -7 -8 -12 8 -33 -18 -23 -29 4 -5 2 -5 -4 -2 -11 6
-111 -92 -106 -106 1 -5 -1 -6 -6 -3 -11 6 -78 -65 -74 -77 1 -5 -2 -6 -8 -2
-5 3 -13 0 -16 -8 -4 -13 -12 -13 -48 -2 -95 29 -195 0 -258 -75 -134 -156
-23 -399 182 -400 160 0 280 155 238 307 l-10 36 465 466 464 466 -1 995 -1
995 286 287 286 288 550 0 551 0 200 200 200 200 0 262 0 261 289 289 288 288
0 400 0 400 23 16 c12 8 20 20 16 25 -3 5 0 8 8 7 7 -2 12 4 10 12 -2 8 -1 12
3 8 10 -10 45 24 38 36 -3 6 -3 8 1 4 10 -8 47 23 40 34 -3 5 0 7 8 6 7 -2 12
3 11 9 -2 7 3 12 10 10 6 -1 11 5 9 13 -2 8 -1 12 3 8 9 -9 45 23 39 34 -3 5
0 7 8 6 7 -2 12 4 10 12 -2 8 -1 12 3 8 9 -9 45 23 39 34 -3 5 0 7 8 6 7 -2
12 4 10 12 -2 8 -1 12 3 8 10 -10 45 24 38 36 -3 6 -3 8 1 4 5 -4 17 2 29 13
20 18 39 19 404 19 l383 0 0 -123 0 -124 -283 0 -282 0 -30 -27 c-17 -16 -29
-33 -27 -40 2 -6 0 -8 -4 -4 -8 8 -110 -92 -106 -104 1 -5 -2 -7 -6 -5 -4 1
-37 -27 -73 -63 l-65 -65 1 -433 c0 -239 -3 -436 -8 -439 -4 -2 -5 -9 -2 -14
4 -5 2 -9 -4 -9 -6 0 -95 -85 -198 -188 l-188 -189 0 -481 0 -482 -175 -173
-175 -174 -485 2 -485 1 -199 -197 -199 -196 0 -956 0 -956 -194 -194 -194
-194 0 -856 -1 -855 -57 -21 c-208 -76 -224 -355 -26 -451 36 -18 116 -27 155
-17 116 27 190 121 190 240 0 64 -23 122 -69 170 -29 31 -98 67 -130 67 -13 0
-21 7 -21 18 -1 9 -2 393 -3 852 l-2 835 50 50 c28 27 49 53 48 57 -2 4 1 7 5
5 10 -3 78 65 74 75 -1 5 1 7 6 6 10 -4 118 103 115 114 -2 4 0 7 5 6 4 -1 26
16 48 37 l42 40 -2 962 c0 529 1 960 3 958 5 -6 81 77 81 88 0 6 3 8 6 4 7 -7
74 61 74 76 0 5 3 8 6 5 7 -7 154 141 154 155 0 6 3 8 6 4 3 -3 13 2 22 11 16
16 60 17 497 16 394 -1 484 2 503 13 13 8 100 91 194 185 l170 170 0 483 0
482 84 83 c46 45 84 86 84 91 0 4 9 11 20 14 11 4 18 10 15 15 -3 5 4 11 15
15 11 4 18 11 15 16 -4 5 -2 9 3 9 9 0 92 78 92 86 0 2 11 14 25 28 14 14 25
22 25 19 0 -4 6 1 13 10 9 13 12 118 11 445 0 235 3 434 7 442 4 9 68 76 142
150 l136 134 263 -1 c145 -1 269 -2 276 -2 9 -1 12 -54 12 -231 l0 -230 93 0
92 0 -1 -137 c-1 -76 -3 -140 -4 -143 -1 -3 -1 -9 0 -15 1 -5 -2 -7 -6 -3 -8
8 -44 -29 -44 -45 0 -6 -3 -8 -6 -5 -6 7 -154 -139 -154 -152 0 -6 -3 -9 -8
-7 -9 3 -72 -63 -72 -76 0 -6 -3 -8 -6 -4 -7 6 -74 -60 -74 -74 0 -5 -3 -8 -8
-6 -9 2 -72 -62 -72 -74 0 -5 -3 -8 -8 -6 -9 3 -72 -63 -72 -76 0 -6 -3 -8 -6
-4 -7 6 -74 -60 -74 -74 0 -5 -3 -8 -8 -6 -9 3 -72 -63 -72 -76 0 -6 -3 -8 -6
-5 -6 7 -154 -139 -154 -152 0 -6 -3 -9 -8 -7 -7 2 -70 -59 -74 -72 0 -3 -2
-309 -3 -680 -1 -617 -3 -675 -18 -686 -9 -7 -17 -14 -17 -17 0 -8 -153 -158
-161 -158 -4 0 -11 -9 -14 -21 -4 -11 -9 -18 -12 -16 -2 3 -24 -16 -48 -42
l-44 -47 -406 1 c-301 0 -412 -3 -428 -12 -12 -7 -18 -12 -13 -13 5 0 -7 -13
-27 -29 -20 -15 -34 -31 -30 -35 3 -3 -2 -6 -12 -6 -10 0 -15 -3 -12 -6 4 -4
-10 -20 -30 -35 -20 -16 -33 -29 -30 -29 3 0 -9 -15 -26 -33 -18 -18 -35 -31
-39 -29 -5 2 -8 -4 -8 -12 0 -9 -3 -15 -7 -13 -5 1 -9 -2 -10 -6 -1 -5 -19
-22 -39 -38 -20 -16 -33 -29 -28 -29 5 0 -3 -8 -19 -18 -15 -10 -24 -22 -20
-25 3 -4 -1 -7 -11 -7 -9 0 -15 -4 -12 -8 2 -4 -8 -16 -24 -27 -16 -11 -30
-28 -32 -40 -2 -11 -3 -514 -3 -1117 0 -604 -3 -1098 -7 -1098 -5 0 -8 -7 -8
-16 0 -8 -5 -12 -10 -9 -6 3 -14 -5 -20 -19 -5 -14 -12 -26 -15 -26 -4 0 -3 6
1 13 4 6 -3 2 -15 -10 -11 -12 -21 -27 -21 -33 0 -6 -5 -8 -10 -5 -6 3 -14 -5
-20 -19 -5 -14 -12 -26 -15 -26 -4 0 -3 6 1 13 5 8 3 8 -9 -2 -9 -7 -14 -17
-11 -22 3 -5 0 -9 -6 -9 -6 0 -23 -11 -38 -25 -15 -14 -23 -25 -19 -25 4 0 2
-6 -5 -14 -7 -8 -16 -12 -19 -10 -8 5 -49 -43 -49 -58 0 -6 -3 -9 -6 -5 -8 8
-34 -18 -34 -33 0 -6 -5 -8 -10 -5 -6 3 -14 -5 -20 -19 -5 -14 -12 -26 -15
-26 -4 0 -3 6 0 13 4 6 -5 -1 -19 -18 l-26 -30 0 -607 0 -607 -21 -6 c-12 -4
-39 -23 -60 -42 -83 -75 -104 -187 -54 -289 58 -118 199 -167 321 -110 125 58
174 208 109 335 -22 44 -95 111 -121 111 -11 0 -13 114 -13 576 l0 576 85 86
c46 47 84 90 84 95 0 6 2 8 5 5 3 -3 61 50 129 118 l123 123 -1 1107 c-1 1092
-1 1106 19 1120 11 8 17 14 13 14 -3 0 8 15 25 33 18 18 34 31 36 30 3 -2 12
8 21 23 10 14 20 25 24 25 3 -1 6 2 5 5 0 4 12 15 28 25 15 10 25 19 22 19 -4
0 12 19 35 43 22 24 46 43 51 42 6 0 10 5 9 10 0 6 10 20 23 32 12 12 23 19
23 15 0 -4 4 -1 9 7 8 12 75 15 419 15 l410 1 202 202 201 201 0 676 c0 438 3
677 9 681 6 4 8 10 5 15 -3 4 3 14 13 21 16 13 16 12 3 -6 -8 -11 2 -3 22 17
21 20 37 42 37 48 0 6 4 9 9 6 5 -3 15 2 22 11 12 14 12 16 0 8 -10 -5 -12 -4
-7 3 4 7 14 12 22 12 8 0 19 11 24 25 5 14 12 25 15 25 4 0 3 -6 -1 -12 -4 -7
3 -3 15 9 11 12 21 27 21 33 0 5 6 9 13 7 6 -1 11 4 10 10 -2 7 3 12 10 10 6
-1 11 4 10 11 -2 6 3 12 10 12 16 0 67 54 67 71 0 5 4 8 9 5 5 -3 15 2 22 11
10 12 10 14 2 9 -7 -4 -13 -5 -13 -1 0 3 12 10 26 15 14 6 22 15 19 20 -4 6
-1 9 7 8 7 -2 12 3 11 10 -2 6 4 12 13 12 8 0 12 5 9 10 -3 6 -1 10 5 10 6 0
21 10 33 21 12 12 16 18 8 14 -9 -5 -12 -4 -7 3 4 7 14 12 22 12 8 0 19 11 24
25 5 14 12 25 15 25 4 0 3 -6 -1 -12 -5 -9 -3 -9 9 1 9 7 14 17 11 22 -3 5 0
9 6 9 14 0 40 25 40 39 0 5 5 13 12 17 7 5 8 3 3 -7 -8 -12 -6 -12 8 0 9 7 14
17 11 22 -3 5 0 9 7 9 15 0 89 74 89 89 0 7 4 10 9 7 5 -3 15 2 22 11 12 14
12 16 0 8 -10 -5 -12 -4 -7 3 4 7 14 12 22 12 8 0 19 11 24 25 5 14 12 25 15
25 4 0 3 -6 -1 -12 -4 -7 3 -3 15 9 11 12 21 27 21 33 0 5 6 9 13 7 6 -1 11 4
10 10 -2 7 0 12 5 10 4 -1 8 2 9 7 1 5 12 14 25 20 27 14 25 -3 27 206 l1 170
125 0 125 0 0 -303 0 -303 -413 -413 -412 -412 0 -896 c0 -492 -3 -900 -7
-906 -4 -6 -76 -81 -161 -167 l-155 -155 -393 0 -393 1 -168 -168 -168 -167 0
-688 0 -688 118 -117 c64 -64 131 -130 147 -148 l30 -31 1 -513 1 -514 -188
-188 -188 -188 0 -620 c0 -342 0 -637 -1 -657 0 -34 -2 -36 -54 -52 -97 -31
-165 -123 -166 -222 0 -72 15 -115 56 -163 68 -79 158 -107 258 -78 164 48
225 256 115 390 -31 37 -116 86 -150 86 -14 0 -15 65 -15 653 l1 652 186 185
185 185 0 532 -1 531 -147 148 -148 148 0 671 0 670 44 42 c24 23 42 44 38 47
-3 3 1 6 9 6 17 0 50 36 42 44 -4 3 -1 6 6 6 16 0 41 25 41 40 0 6 3 10 8 8 9
-5 61 49 54 56 -3 4 1 6 8 6 8 0 24 12 36 27 l22 28 396 0 396 0 172 173 173
172 1 903 0 902 411 409 410 410 1 300 c0 166 1 307 1 314 1 9 33 12 126 12
l125 0 0 -413 0 -412 -378 -378 -377 -377 0 -1027 1 -1028 -138 -138 c-76 -76
-138 -143 -138 -148 0 -5 -7 -9 -15 -9 -8 0 -15 -7 -15 -15 0 -8 -4 -15 -10
-15 -12 0 -110 -98 -110 -111 0 -5 -4 -9 -9 -9 -13 0 -81 -67 -81 -80 0 -5 -6
-10 -14 -10 -13 0 -14 -99 -13 -713 l2 -712 -250 -251 -250 -251 1 -734 1
-734 -165 -166 -164 -166 0 -371 c0 -299 -2 -372 -13 -372 -27 0 -113 -90
-131 -136 -89 -232 173 -430 375 -283 84 60 117 194 72 293 -22 49 -49 78
-101 111 l-39 25 0 332 1 333 164 165 164 164 0 736 0 735 249 249 249 249 0
710 0 710 271 271 271 271 0 1029 0 1028 80 80 c44 44 80 83 80 89 0 5 7 9 15
9 8 0 15 7 15 15 0 8 5 15 11 15 12 0 69 60 69 73 0 4 4 7 9 7 12 0 231 219
231 231 0 5 5 9 11 9 12 0 69 60 69 73 0 4 4 7 9 7 5 0 42 33 83 73 l73 74 0
444 0 444 122 3 121 3 0 -586 -1 -585 -363 -364 -364 -364 0 -1160 0 -1159
-232 -232 -232 -232 -1 -872 0 -872 -220 -219 -220 -220 0 -989 0 -990 -51
-17 c-172 -56 -232 -255 -118 -388 52 -61 105 -86 184 -86 214 0 323 239 184
403 -28 33 -113 81 -145 81 -15 0 -16 89 -16 991 0 824 2 992 13 996 8 3 11 9
8 14 -3 5 0 9 6 9 12 0 82 70 71 70 -3 0 5 6 19 13 13 7 30 24 37 37 7 14 13
22 13 18 0 -4 13 5 28 20 15 15 26 30 24 35 -2 4 1 7 7 7 11 0 131 118 131
130 0 4 8 14 18 21 16 13 16 13 2 -6 -14 -19 -14 -19 3 -6 9 7 17 20 17 28 0
8 4 12 9 8 5 -3 12 4 16 15 4 11 10 18 13 16 4 -2 7 389 7 870 0 481 4 874 8
874 5 0 5 4 2 10 -3 5 0 10 8 10 8 0 21 8 28 18 13 16 13 16 -5 2 -14 -10 -17
-11 -12 -2 4 7 19 17 32 22 13 5 24 16 24 23 0 16 37 51 63 60 9 4 17 13 17
20 0 8 8 21 18 28 16 13 16 13 2 -5 -10 -14 -11 -17 -2 -12 7 4 18 19 23 33 5
14 18 27 29 30 11 3 17 9 14 14 -3 5 1 9 9 9 8 0 21 8 28 18 13 16 13 16 -5 2
-14 -10 -17 -11 -12 -2 4 7 19 17 32 22 13 5 24 16 24 24 0 7 8 20 18 27 16
13 16 13 2 -5 -10 -14 -11 -17 -2 -12 7 4 18 19 23 33 5 14 18 27 29 30 11 3
17 9 14 14 -3 5 2 9 10 9 9 0 16 7 16 15 0 8 6 14 12 12 10 -1 13 238 13 1171
1 1138 2 1173 20 1190 18 16 18 16 4 -3 -13 -18 -13 -19 4 -6 9 7 17 20 17 28
0 8 4 12 9 9 5 -3 11 3 14 14 3 11 16 24 30 29 14 5 29 16 33 23 5 9 2 8 -11
-2 -13 -10 -16 -11 -11 -2 4 7 19 17 32 22 13 5 24 16 24 24 0 7 8 20 18 27
16 13 16 13 2 -6 -14 -19 -14 -19 3 -6 9 7 17 20 17 28 0 8 4 12 9 9 5 -3 11
4 14 15 3 11 15 23 27 26 12 3 26 16 31 30 5 13 20 28 34 33 14 5 25 16 25 24
0 7 8 20 18 27 16 13 16 13 2 -5 -10 -14 -11 -17 -2 -12 7 4 17 19 22 32 5 13
21 29 34 34 13 5 28 15 32 22 5 9 2 8 -12 -2 -18 -14 -18 -14 -5 3 7 9 20 17
28 17 7 0 16 8 20 18 9 25 44 62 60 62 7 0 18 12 23 26 6 14 20 28 31 31 11 3
25 17 30 30 5 14 18 27 29 30 11 3 17 9 14 14 -3 5 2 9 10 9 9 0 16 7 16 16 0
8 4 13 9 10 5 -3 15 2 22 11 12 14 12 16 0 8 -11 -6 -12 -5 -5 6 5 8 9 267 9
594 l0 580 125 0 125 0 0 -661 0 -662 -360 -360 -360 -359 0 -1191 0 -1191
-213 -211 -214 -212 0 -953 0 -952 -223 -223 -223 -222 0 -328 -1 -328 130
-131 c71 -72 134 -131 139 -131 6 0 9 -4 7 -9 -1 -5 15 -24 35 -44 l37 -35 0
-539 1 -539 -30 -18 c-217 -128 -134 -459 115 -458 190 0 306 203 210 367 -22
39 -99 105 -122 105 -5 0 -8 258 -8 573 l0 572 -48 51 c-26 28 -100 103 -163
165 -64 63 -120 123 -126 133 -7 13 -11 117 -11 280 0 216 3 261 14 261 8 1
13 6 12 13 -2 7 3 11 10 9 6 -1 11 4 10 10 -2 7 3 12 10 10 6 -1 11 4 10 10
-2 7 3 12 10 10 6 -1 11 4 9 11 -1 8 1 11 6 8 11 -6 43 30 34 39 -4 4 0 5 8 3
8 -2 14 3 13 9 -2 7 3 12 10 10 6 -1 11 4 10 10 -2 7 0 12 5 11 11 -4 102 84
96 94 -3 5 0 7 8 6 7 -2 12 3 11 9 -2 7 3 12 10 10 6 -1 11 4 10 10 -2 7 3 12
10 10 6 -1 11 4 10 10 -2 7 0 12 5 11 11 -4 102 84 96 94 -3 5 0 7 8 6 11 -3
13 165 14 955 l0 958 211 212 212 212 0 1188 1 1189 360 360 360 360 0 699 0
699 110 0 110 0 0 -799 0 -799 -307 -307 -308 -308 0 -1322 0 -1323 -178 -178
-177 -178 0 -619 0 -620 188 -189 189 -188 0 -1067 0 -1068 -146 -146 -146
-147 0 -205 1 -205 -53 -16 c-68 -22 -132 -85 -154 -152 -46 -145 49 -301 195
-319 197 -25 339 171 252 349 -31 63 -75 100 -149 125 l-52 18 0 195 1 194
147 147 147 147 0 1082 0 1083 -190 190 -190 189 0 602 0 602 177 177 176 177
0 1324 c0 1265 1 1325 18 1340 10 9 16 21 13 26 -3 4 -1 7 4 6 5 -2 139 126
297 284 l287 288 0 805 0 806 137 -3 136 -3 0 -939 0 -940 -207 -207 -208
-208 0 -1206 c0 -1196 0 -1207 20 -1212 11 -3 18 -9 15 -13 -3 -4 3 -14 12
-21 12 -10 14 -10 9 -2 -4 7 -5 13 -2 13 3 0 13 -14 21 -31 9 -17 19 -28 22
-25 4 3 11 -4 18 -17 6 -12 17 -21 23 -20 7 2 12 -2 12 -7 0 -15 64 -80 79
-80 7 0 10 -4 6 -10 -3 -5 8 -16 24 -25 16 -8 33 -21 37 -27 5 -8 1 -8 -12 2
-10 8 -2 -2 18 -23 20 -20 42 -37 48 -37 5 0 9 -6 7 -12 -1 -7 4 -12 11 -11 6
2 12 -1 12 -7 0 -5 19 -28 42 -52 23 -24 36 -34 28 -24 -10 13 -10 17 -2 12 6
-4 19 -21 27 -37 9 -16 20 -27 25 -24 6 4 10 -1 10 -9 0 -8 8 -19 17 -25 17
-9 18 -61 18 -847 l0 -837 -67 -69 c-38 -38 -68 -73 -68 -78 0 -6 -4 -9 -8 -7
-4 1 -75 -66 -158 -149 l-150 -150 0 -1129 1 -1128 -48 -30 c-212 -130 -125
-451 123 -451 40 0 78 7 100 17 184 88 192 348 13 440 l-28 15 0 1101 c0 1087
0 1100 20 1116 11 9 13 13 5 9 -13 -7 -13 -5 -1 9 7 9 17 15 21 12 4 -3 14 3
21 12 12 14 12 16 0 8 -10 -5 -12 -4 -7 3 4 7 14 12 22 12 8 0 14 7 14 15 0 8
6 14 13 12 6 -1 11 4 9 11 -1 8 2 11 7 8 5 -3 15 2 22 11 12 14 12 16 0 8 -10
-5 -12 -4 -7 3 4 7 14 12 22 12 8 0 14 7 14 15 0 8 5 14 12 12 6 -1 17 8 23
21 7 13 16 23 19 22 4 -1 19 11 34 26 15 15 21 24 13 19 -10 -5 -12 -4 -7 3 4
7 13 12 21 12 8 0 17 5 21 12 5 7 3 8 -6 3 -9 -5 -11 -4 -6 3 4 7 14 12 22 12
8 0 14 7 14 15 0 8 5 14 12 12 6 -1 17 8 23 21 7 13 15 22 17 20 2 -2 19 10
36 27 l32 30 0 904 0 904 -26 23 c-14 13 -30 24 -35 24 -6 0 -8 3 -6 8 6 9
-49 63 -57 55 -3 -4 -6 -1 -6 5 0 14 -78 92 -91 92 -6 0 -8 3 -6 8 6 9 -49 63
-57 55 -3 -4 -6 -1 -6 6 0 6 -58 70 -129 140 l-129 129 0 1141 c0 652 4 1141
9 1141 14 0 49 33 49 47 0 6 5 15 12 19 7 5 8 2 3 -7 -4 -8 8 1 28 20 20 19
33 39 30 44 -3 6 -1 7 4 4 6 -4 17 1 24 10 12 14 12 16 0 8 -10 -5 -12 -4 -7
3 4 7 13 12 19 12 14 0 47 35 47 50 0 5 5 12 12 16 7 5 8 3 3 -7 -8 -12 -6
-12 8 0 9 7 14 18 10 24 -3 5 -2 7 4 4 5 -3 25 10 44 30 19 20 28 32 20 28 -9
-5 -12 -4 -7 3 4 7 13 12 20 12 16 0 48 34 41 43 -3 4 -2 5 2 2 3 -3 15 2 25
12 17 15 18 59 18 995 l0 978 123 0 122 0 0 -1075 -1 -1075 -74 -106 c-41 -58
-84 -117 -95 -132 -11 -15 -67 -92 -125 -173 l-106 -147 1 -733 0 -734 246
-246 246 -246 0 -496 0 -496 211 -212 212 -212 0 -766 0 -766 -215 -215 -215
-215 0 -242 c0 -228 -1 -243 -18 -243 -10 0 -41 -11 -69 -25 -118 -59 -166
-199 -109 -320 42 -92 134 -146 236 -139 249 17 310 357 83 464 -23 11 -51 20
-61 20 -17 0 -18 14 -18 235 l1 235 213 212 212 213 0 785 0 785 -212 213
-213 212 0 497 0 496 -246 247 -246 246 0 716 0 716 47 64 c144 195 333 462
344 486 10 21 12 261 12 1099 l-1 1073 123 0 122 0 0 -288 0 -287 85 -85 84
-84 0 -1170 c0 -644 1 -1178 1 -1187 0 -9 64 -80 142 -158 l141 -141 0 -813
-1 -812 122 -123 121 -122 0 -1593 0 -1592 -106 -108 -106 -108 -1 -447 c0
-246 -1 -461 -1 -479 -1 -26 -9 -36 -44 -58 -180 -114 -143 -381 61 -441 160
-47 316 75 308 241 -2 37 -11 76 -24 101 -22 44 -96 114 -119 114 -11 0 -13
84 -13 450 l0 449 106 105 107 105 0 1666 0 1666 -120 120 -120 120 -1 807 c0
444 -1 810 -1 814 -1 5 -65 72 -144 151 l-142 142 0 1185 0 1185 -82 85 -83
85 0 253 0 252 210 0 210 0 0 -805 0 -805 308 -308 307 -307 0 -1322 c0 -727
4 -1326 8 -1330 4 -4 84 -85 178 -179 l171 -171 -2 -599 c-1 -632 -1 -626 -7
-620 -3 2 -87 -78 -188 -179 l-183 -184 0 -1084 0 -1085 147 -147 146 -146 -1
-202 c-2 -246 0 -227 -21 -227 -36 0 -120 -48 -151 -86 -90 -109 -68 -279 47
-354 113 -75 239 -59 325 42 112 130 50 340 -116 390 -22 6 -39 18 -39 27 -1
9 -2 109 -3 223 l-1 208 -145 145 -145 145 0 1067 -1 1067 188 189 188 189 0
56 c1 31 1 311 1 621 l1 564 -179 181 -179 181 1 1319 1 1318 -308 309 -308
309 0 795 0 795 123 0 122 0 0 -697 0 -698 215 -215 c118 -118 218 -214 222
-212 5 1 7 -1 6 -6 -4 -9 145 -157 154 -154 5 1 7 -1 6 -6 -2 -4 25 -34 58
-68 l61 -60 -1 -1190 -1 -1189 125 -125 c68 -69 129 -124 135 -122 5 2 7 1 3
-3 -8 -8 142 -161 154 -158 4 2 7 -430 7 -958 l0 -961 223 -223 223 -224 1
-261 0 -261 -173 -172 -173 -172 0 -567 0 -567 -30 -16 c-140 -73 -168 -273
-54 -389 59 -59 180 -86 255 -57 54 21 107 71 133 124 62 127 14 259 -124 337
-13 7 -15 79 -15 535 0 290 3 529 8 532 4 2 5 9 2 14 -4 5 -1 9 5 9 14 0 120
105 120 119 0 6 3 10 8 9 10 -4 72 57 72 71 0 6 4 10 9 8 5 -1 36 26 68 60
l58 62 -1 313 c0 173 -4 320 -9 327 -6 10 -4 12 6 6 8 -5 -15 21 -51 56 -36
35 -68 63 -72 61 -5 -1 -8 2 -8 8 0 5 -16 27 -35 47 -19 20 -35 33 -35 28 0
-6 -9 4 -19 22 -11 17 -29 34 -40 38 -11 3 -20 10 -18 14 1 4 -36 46 -83 92
l-85 85 0 951 0 951 -212 213 -213 213 0 1190 0 1191 -360 359 -360 359 0 664
0 663 124 0 124 0 0 -591 0 -592 365 -366 365 -366 -1 -1158 0 -1159 231 -231
232 -232 0 -868 0 -869 179 -178 c98 -99 182 -176 186 -172 4 4 5 2 3 -4 -2
-6 14 -29 36 -50 l38 -39 0 -955 c0 -525 -1 -969 -1 -987 -1 -27 -5 -32 -33
-38 -47 -10 -81 -30 -117 -66 -43 -43 -62 -82 -68 -145 -15 -140 81 -257 220
-269 216 -19 347 239 203 402 -30 35 -115 83 -147 83 -14 0 -16 90 -15 990 1
545 -3 990 -7 990 -5 0 -6 4 -3 8 6 10 -38 52 -54 52 -6 0 -9 6 -7 13 1 6 -4
11 -11 9 -8 -1 -11 1 -8 6 6 10 -44 58 -56 54 -5 -1 -7 2 -5 6 3 12 -65 82
-75 76 -5 -3 -7 0 -6 8 2 7 -3 12 -9 11 -7 -2 -13 3 -13 10 0 15 -60 73 -73
69 -4 -1 -6 1 -3 6 6 10 -64 78 -77 74 -5 -1 -6 1 -3 6 3 5 -4 16 -15 25 -19
16 -19 37 -19 882 0 476 0 868 -1 873 -1 15 -32 41 -42 35 -5 -3 -7 -2 -4 4 7
12 -28 44 -39 35 -4 -4 -4 -2 -1 4 8 14 -26 47 -38 37 -4 -5 -5 -3 -2 3 6 11
-33 50 -46 46 -5 -1 -6 2 -2 8 3 6 -4 14 -17 19 -13 4 -21 10 -18 12 8 7 -34
48 -43 42 -6 -3 -7 -1 -4 4 8 13 -17 36 -28 25 -5 -4 -5 -2 -2 4 7 12 -25 47
-36 39 -4 -3 -5 -2 -3 1 7 9 -26 44 -36 38 -4 -3 -8 0 -8 5 0 17 -33 50 -43
44 -6 -3 -7 -1 -4 4 7 12 -16 36 -25 27 -18 -17 -21 164 -21 1204 1 1045 -1
1143 -16 1152 -9 5 -12 10 -8 10 4 0 -153 160 -348 355 l-356 356 0 532 c0
293 1 556 1 585 l0 52 123 0 122 0 0 -446 -1 -446 378 -379 378 -378 0 -1028
0 -1028 271 -271 270 -271 0 -709 0 -710 250 -250 249 -249 0 -736 0 -736 163
-163 162 -163 1 -334 1 -334 -47 -31 c-160 -104 -150 -332 19 -420 123 -64
271 -15 328 110 55 119 16 251 -94 315 l-39 22 1 365 1 365 -153 155 c-84 85
-159 164 -166 175 -10 16 -13 165 -13 750 l1 730 -250 250 -250 250 0 710 0
710 -270 270 -270 270 -1 1028 -1 1029 -376 376 -376 377 0 413 0 412 123 0
122 0 0 -315 c-1 -246 2 -315 12 -315 6 0 12 -5 12 -11 0 -12 77 -89 90 -89 5
0 12 -9 15 -20 3 -11 12 -20 20 -20 8 0 17 -9 20 -20 3 -11 13 -20 21 -20 8 0
14 -4 14 -9 0 -12 59 -71 71 -71 5 0 9 -7 9 -16 0 -9 9 -18 20 -21 11 -3 20
-9 20 -13 0 -13 77 -90 90 -90 6 0 8 -4 5 -10 -3 -6 1 -10 9 -10 9 0 16 -7 16
-16 0 -9 9 -18 20 -21 11 -3 20 -9 20 -13 0 -12 59 -70 71 -70 5 0 9 -4 9 -9
0 -13 56 -71 69 -71 6 0 11 -4 11 -9 0 -12 59 -71 71 -71 5 0 9 -6 9 -14 0 -8
9 -18 20 -21 11 -3 20 -12 20 -20 0 -8 9 -17 20 -20 11 -3 20 -13 20 -21 0 -8
5 -14 10 -14 7 0 10 -308 10 -905 0 -683 3 -905 12 -905 6 0 9 -2 6 -5 -7 -7
58 -75 71 -75 5 0 13 -9 16 -20 3 -11 13 -20 21 -20 8 0 14 -7 14 -16 0 -8 5
-12 10 -9 6 3 10 -1 10 -10 0 -9 5 -13 10 -10 6 3 10 2 10 -3 0 -12 119 -132
131 -132 5 0 9 -6 9 -14 0 -8 10 -18 21 -21 12 -4 200 -8 418 -9 218 0 394 -4
391 -7 -9 -10 22 -39 34 -32 6 3 8 3 4 -2 -8 -8 111 -131 124 -128 4 2 7 -1 5
-5 -3 -11 55 -68 66 -64 5 1 6 -2 3 -6 -3 -5 9 -21 27 -36 l32 -27 0 -674 c0
-371 -4 -675 -8 -675 -5 0 -5 -4 -2 -10 3 -5 0 -10 -8 -10 -16 0 -57 -45 -57
-62 0 -6 -3 -9 -6 -5 -9 9 -44 -25 -37 -36 3 -6 2 -7 -4 -4 -11 7 -45 -28 -36
-37 4 -3 1 -6 -6 -6 -17 0 -102 -81 -96 -91 3 -4 -4 -10 -15 -14 -13 -4 -20
-15 -21 -33 0 -15 -1 -256 -1 -535 l-1 -508 188 -188 188 -188 1 -651 1 -651
-35 -6 c-46 -9 -78 -27 -118 -66 -45 -44 -63 -81 -69 -145 -18 -171 131 -304
296 -264 138 33 216 173 174 314 -20 67 -94 139 -161 157 l-49 12 0 657 0 657
-189 190 -189 189 0 517 c0 284 3 517 6 517 10 0 149 143 149 153 0 6 3 8 6 4
7 -7 84 72 84 86 0 6 3 7 6 4 4 -4 16 4 28 18 21 24 21 27 20 710 l-1 686
-169 169 -169 169 -397 -2 c-218 -1 -395 0 -393 1 6 6 -55 62 -67 62 -6 0 -9
3 -6 6 4 3 -50 61 -118 130 l-124 124 0 897 0 898 -26 30 c-14 17 -30 29 -35
28 -5 -2 -8 1 -6 5 3 10 -625 638 -635 635 -4 -2 -7 1 -5 5 1 5 -25 35 -58 68
l-61 59 1 303 0 302 122 0 c110 0 123 -2 124 -17 0 -10 1 -88 1 -173 l0 -155
471 -472 471 -472 0 -674 c1 -372 3 -678 6 -681 3 -3 95 -96 204 -206 l200
-200 407 0 408 0 173 -173 174 -174 -1 -1104 -1 -1104 209 -211 c115 -115 211
-215 215 -221 5 -8 8 -1145 3 -1185 -1 -3 -20 -17 -44 -31 -76 -45 -117 -125
-112 -219 9 -174 192 -281 349 -204 91 45 137 123 132 227 -4 96 -54 176 -132
211 l-22 11 -1 630 0 630 -213 214 -213 213 0 1109 -1 1108 -220 220 -220 219
-408 0 -409 -1 -158 157 -159 157 0 678 0 678 -470 470 -470 470 0 137 0 138
60 0 60 0 0 233 0 232 312 -2 c172 0 316 -2 319 -2 3 -1 69 -64 146 -142 l142
-140 0 -436 0 -436 200 -201 201 -201 -1 -480 0 -479 182 -183 c100 -101 185
-184 188 -184 3 -1 226 -2 494 -3 l488 -1 181 -183 182 -183 0 -957 0 -956
193 -193 c106 -107 193 -202 194 -211 1 -9 2 -388 3 -843 l1 -825 -24 -2 c-42
-4 -110 -42 -141 -80 -131 -159 -20 -402 185 -402 67 0 115 19 166 67 60 56
84 120 76 200 -10 97 -89 193 -173 209 -19 3 -37 11 -41 17 -3 6 -7 390 -7
853 l-1 843 -194 194 -194 194 -1 955 -1 955 -195 197 -195 196 -491 0 -490 0
-172 172 -172 172 0 416 c1 228 1 444 0 481 l0 65 -200 200 -200 199 0 436 0
435 -154 155 -155 154 -318 2 c-175 1 -321 2 -325 2 -5 1 -8 55 -8 121 0 107
2 120 18 121 9 1 201 2 427 3 l409 1 193 -193 193 -194 -1 -361 c0 -473 -1
-449 11 -442 5 3 10 2 10 -2 0 -5 7 -18 16 -29 8 -10 12 -13 8 -5 -5 9 -3 12
4 7 7 -4 12 -13 12 -20 0 -8 8 -20 18 -27 16 -13 16 -12 3 6 -8 11 3 2 25 -20
22 -22 40 -44 39 -50 0 -5 6 -9 13 -8 6 2 12 0 12 -5 0 -4 10 -18 21 -32 11
-14 17 -19 13 -11 -5 9 -3 12 4 7 7 -4 12 -14 12 -22 0 -8 4 -13 9 -10 4 3 13
-6 20 -20 6 -14 14 -23 19 -21 4 3 21 -12 37 -33 17 -21 42 -46 57 -56 15 -10
26 -23 25 -29 -1 -5 4 -9 11 -8 6 2 12 0 12 -5 0 -4 10 -18 21 -32 11 -14 17
-19 13 -11 -5 9 -3 12 4 7 7 -4 12 -14 12 -22 0 -8 4 -13 9 -10 4 3 17 -4 27
-17 19 -21 19 -21 -1 -7 -19 14 -19 14 -6 -2 7 -10 19 -18 27 -18 7 0 16 -5
20 -12 5 -7 2 -9 -7 -3 -8 4 0 -4 16 -18 l30 -25 1 -266 c0 -209 3 -269 14
-279 10 -10 11 -9 5 2 -5 9 -4 12 3 7 7 -4 12 -11 12 -17 0 -15 52 -69 61 -63
5 3 9 1 9 -5 0 -15 115 -131 130 -131 8 0 11 -3 8 -6 -8 -7 136 -154 151 -154
7 0 10 -4 7 -8 -3 -5 241 -8 542 -7 539 1 547 1 572 -19 23 -20 24 -20 10 -1
-10 14 -10 16 -1 8 7 -6 19 -22 25 -35 7 -12 18 -22 24 -21 7 2 12 -3 12 -10
0 -15 36 -48 44 -40 3 4 6 -1 6 -11 0 -9 4 -14 10 -11 5 3 10 0 10 -8 0 -17
34 -49 43 -40 4 3 7 0 7 -8 0 -15 39 -55 41 -41 0 4 4 -3 9 -16 5 -12 16 -22
25 -22 8 0 14 -5 12 -12 -1 -6 8 -17 21 -23 12 -7 26 -16 30 -20 4 -5 1 -5 -7
0 -9 5 -12 4 -7 -3 4 -7 14 -12 23 -12 9 0 14 -3 10 -6 -8 -8 34 -54 50 -54 8
0 11 -4 8 -10 -3 -5 2 -10 11 -10 10 0 15 -3 11 -6 -8 -8 25 -44 40 -44 7 0
12 -5 10 -12 -1 -6 8 -17 21 -23 13 -7 22 -16 21 -21 -1 -5 8 -14 19 -20 l22
-11 0 -1004 c0 -931 1 -1005 17 -1016 9 -7 13 -13 8 -13 -5 0 5 -11 23 -23 17
-13 29 -26 26 -29 -3 -3 11 -16 30 -28 20 -12 36 -24 36 -26 0 -3 -6 -2 -12 2
-7 4 3 -8 22 -27 19 -19 37 -34 40 -33 3 1 16 -13 30 -32 14 -18 31 -34 38
-34 7 0 12 -3 10 -7 -2 -5 13 -24 34 -44 21 -21 38 -34 38 -31 0 3 11 -8 23
-26 13 -17 27 -29 30 -25 4 3 7 -2 7 -12 0 -10 3 -15 6 -12 4 4 19 -9 34 -28
15 -19 30 -32 34 -28 3 3 6 0 6 -8 0 -8 16 -25 34 -39 19 -14 33 -26 32 -28
-6 -5 79 -87 87 -84 4 2 7 -3 7 -10 0 -7 16 -24 34 -38 19 -14 33 -27 32 -30
-1 -3 14 -21 33 -40 19 -19 31 -29 27 -22 -4 6 -5 12 -2 12 2 0 14 -16 26 -36
12 -19 25 -33 28 -30 3 3 16 -9 29 -26 12 -18 23 -28 23 -23 0 5 7 -1 16 -13
13 -18 14 -29 5 -54 -14 -39 -14 -112 -1 -159 13 -46 72 -114 120 -139 162
-82 354 34 354 215 0 105 -68 201 -163 234 -41 13 -121 14 -155 1 -24 -9 -50
15 -456 422 l-430 430 0 997 c0 626 -4 1002 -10 1011 -5 8 -10 12 -10 8 0 -4
-30 25 -67 65 -36 40 -73 79 -82 87 -13 13 -14 13 -5 0 5 -9 1 -7 -9 5 -59 64
-91 97 -158 160 -41 38 -65 63 -54 55 20 -15 20 -14 1 8 -11 12 -25 22 -33 22
-7 0 -13 3 -13 8 0 4 -30 39 -67 77 -37 39 -64 63 -59 55 4 -8 -5 1 -20 20
-16 19 -40 46 -55 60 l-26 25 -552 0 c-520 0 -552 1 -574 18 -12 10 -15 15 -7
11 8 -4 -3 11 -25 32 -22 22 -43 38 -48 36 -4 -2 -7 3 -7 10 0 16 -57 68 -65
60 -3 -3 -5 0 -5 6 0 12 -44 58 -81 85 -13 10 -17 15 -9 12 8 -4 4 3 -10 15
l-24 22 -1 251 c-1 243 -6 304 -26 292 -5 -4 -9 0 -9 8 0 7 -11 20 -25 27 -14
7 -25 17 -25 22 0 12 -30 42 -31 31 0 -4 -4 3 -10 15 -5 13 -18 26 -29 29 -11
3 -19 8 -17 12 1 3 -13 22 -32 41 -18 19 -30 28 -27 20 4 -8 0 -6 -8 4 -9 11
-16 24 -16 29 0 4 -4 5 -10 2 -5 -3 -10 0 -10 8 0 7 -11 20 -25 27 -14 7 -25
17 -25 21 0 14 -55 69 -69 69 -8 0 -12 3 -8 6 7 8 -17 34 -32 34 -6 0 -11 3
-11 8 0 11 -57 72 -68 72 -5 0 -15 11 -22 25 -7 14 -19 25 -26 25 -10 0 -13
85 -12 407 l0 407 -39 37 c-22 20 -49 49 -61 64 -12 15 -22 25 -22 21 0 -4
-13 8 -30 26 -16 18 -30 36 -30 40 0 5 -4 8 -9 8 -11 0 -231 221 -231 232 0 4
-5 8 -11 8 -6 0 -19 10 -29 22 l-18 22 -458 1 -459 0 -3 125 -3 125 498 -1
c274 -1 500 -2 503 -3 4 -1 781 -775 810 -807 3 -3 5 -156 6 -340 l0 -335 316
-316 316 -316 541 1 c309 0 544 -4 547 -9 3 -5 10 -6 16 -3 6 4 8 2 5 -3 -7
-10 21 -42 36 -41 5 0 12 -4 15 -8 4 -4 0 -3 -8 1 -8 5 82 -89 201 -208 l217
-217 240 0 c233 0 272 -3 272 -21 0 -6 42 -50 112 -116 7 -6 37 -36 67 -67
l54 -55 0 -704 0 -703 26 -30 c15 -16 39 -39 55 -51 16 -13 26 -23 22 -23 -3
0 2 -8 12 -18 9 -11 20 -17 25 -15 4 2 7 0 7 -5 0 -10 137 -150 179 -183 13
-10 21 -19 17 -19 -7 0 107 -113 143 -141 13 -10 21 -19 18 -19 -3 0 10 -16
30 -35 20 -19 40 -35 45 -35 5 0 7 -3 5 -7 -5 -10 30 -43 37 -36 3 4 6 2 6 -4
0 -13 100 -113 112 -113 5 0 7 -3 5 -8 -5 -9 30 -42 37 -35 3 4 6 2 6 -4 0 -6
20 -31 45 -56 l44 -46 -24 -43 c-84 -150 18 -340 190 -355 267 -24 372 336
133 458 -74 38 -198 29 -249 -17 -16 -14 -20 -12 -49 20 -18 20 -37 33 -41 30
-5 -3 -9 0 -9 6 0 16 -142 160 -152 154 -4 -3 -8 0 -8 6 0 15 -220 236 -231
233 -5 -2 -9 2 -9 7 0 14 -140 156 -151 153 -5 -2 -9 2 -9 7 0 16 -62 80 -71
74 -5 -3 -9 0 -9 7 0 7 -33 45 -74 84 l-73 72 0 697 c0 721 -1 746 -40 746 -7
0 -13 4 -13 8 0 8 -85 97 -156 164 -16 15 -40 39 -54 53 l-25 25 -240 0 -241
0 -242 243 -243 242 -540 0 c-298 0 -543 3 -546 8 -2 4 -9 5 -14 1 -5 -3 -8 0
-7 7 2 7 -7 18 -19 24 -13 7 -21 14 -20 16 2 2 -21 29 -51 59 -31 30 -52 49
-47 41 6 -10 4 -12 -4 -7 -7 5 -10 11 -7 14 9 8 -25 42 -41 42 -8 0 -12 3 -10
8 2 4 -29 40 -69 80 -41 40 -74 70 -74 65 0 -4 -6 3 -13 17 -8 14 -19 24 -25
23 -7 -2 -11 3 -9 10 1 6 -4 11 -10 10 -7 -2 -12 0 -11 5 2 4 -18 29 -45 55
-26 27 -47 45 -47 40 0 -4 -6 3 -13 17 -8 14 -19 24 -25 23 -7 -2 -11 3 -9 10
1 6 -4 11 -11 9 -8 -1 -11 2 -7 8 3 5 0 12 -7 15 -10 4 -13 69 -11 328 2 328
0 372 -17 362 -6 -3 -10 -1 -10 6 0 15 -710 725 -722 722 -4 -2 -7 3 -5 10 1
6 -4 11 -10 10 -7 -2 -12 0 -11 5 4 12 -44 62 -54 56 -5 -3 -7 0 -6 7 2 9
-113 12 -507 13 l-510 1 -3 122 -3 123 593 -1 592 0 535 -534 c294 -294 538
-535 542 -535 16 0 22 -78 23 -280 l1 -205 208 -209 208 -208 552 1 552 0 221
-220 221 -221 249 0 249 1 249 -249 249 -249 1 -630 1 -629 148 -148 148 -149
404 1 404 0 11 -27 c6 -14 28 -42 48 -62 154 -150 409 -45 414 170 3 137 -104
245 -242 245 -93 0 -156 -35 -209 -117 l-26 -40 -367 0 -368 0 -100 100 -100
100 0 627 0 628 -299 298 -298 299 -248 0 -248 -1 -219 220 -220 219 -555 1
-554 1 -160 161 -159 160 0 227 0 226 -598 598 -598 598 -609 1 c-336 0 -618
1 -627 1 -16 1 -18 14 -18 121 l0 120 48 1 c26 0 347 1 713 1 l666 1 65 -66
c36 -36 68 -64 72 -62 3 3 4 2 1 -2 -8 -10 16 -33 28 -26 5 3 8 2 5 -3 -6 -10
257 -275 266 -268 3 2 4 1 1 -3 -8 -10 16 -33 28 -26 5 3 8 2 5 -3 -7 -12 118
-135 128 -126 4 4 4 2 1 -4 -8 -14 17 -37 28 -26 5 4 6 3 3 -3 -7 -13 278
-296 288 -287 4 4 4 2 1 -4 -8 -14 17 -37 28 -26 5 4 6 3 3 -3 -7 -13 198
-216 208 -207 4 4 4 2 1 -4 -7 -13 16 -37 26 -29 4 3 5 2 3 -1 -2 -3 13 -23
34 -45 l38 -39 644 0 644 0 222 -222 222 -222 401 0 c314 -1 403 -4 407 -14 2
-6 9 -9 14 -6 6 4 8 2 5 -3 -6 -10 15 -36 24 -30 2 1 3 1 2 -1 -4 -9 263 -269
271 -264 5 3 6 0 3 -5 -6 -10 15 -36 24 -30 2 1 3 0 2 -2 -1 -2 15 -20 36 -40
l37 -36 0 -211 0 -211 193 -192 192 -192 0 -222 -1 -222 195 -195 195 -195
272 0 271 0 15 -51 c57 -206 349 -232 447 -40 64 127 7 281 -124 338 -129 56
-304 -33 -327 -164 -4 -21 -9 -39 -13 -39 -3 -1 -122 -2 -265 -3 -198 -1 -260
2 -263 11 -3 7 -8 11 -13 8 -4 -2 -13 6 -20 19 -7 13 -22 29 -34 35 -12 7 -30
25 -41 41 -11 16 -21 28 -22 26 -2 -2 -45 40 -96 92 -50 51 -102 103 -114 115
-23 20 -23 25 -23 242 l0 222 -107 109 c-60 60 -111 108 -115 107 -5 -2 -8 1
-8 6 0 5 -34 43 -75 84 l-75 74 0 209 0 209 -232 231 -233 231 -393 -1 -392
-1 -222 222 -223 223 -645 0 -645 0 -632 632 -632 632 -718 1 -718 0 -3 123
-3 122 800 0 800 0 75 -75 c41 -41 80 -75 86 -75 5 0 9 -4 7 -8 -3 -10 55 -68
65 -65 4 2 8 -2 8 -7 0 -12 190 -205 190 -193 0 4 6 -3 13 -17 8 -14 19 -24
25 -23 7 2 12 -2 12 -7 0 -14 146 -160 160 -160 5 0 9 -3 8 -7 -4 -11 57 -73
71 -73 6 0 10 -5 8 -12 -1 -6 9 -17 23 -25 14 -7 21 -13 17 -13 -12 0 181
-190 193 -190 5 0 9 -4 7 -8 -3 -10 55 -68 65 -65 4 2 8 -2 8 -9 0 -6 16 -27
36 -45 l37 -33 834 0 835 0 193 -193 193 -193 614 1 c399 1 620 -2 633 -9 11
-6 24 -9 28 -8 5 1 6 -2 3 -6 -7 -12 28 -44 39 -35 4 5 5 3 2 -3 -8 -13 48
-66 59 -56 4 4 5 2 1 -4 -7 -13 107 -126 118 -116 5 4 5 2 2 -4 -4 -6 5 -22
18 -34 l25 -23 0 -441 0 -441 184 -184 184 -184 399 1 c219 0 406 -2 415 -4 9
-3 20 -13 23 -23 9 -30 75 -92 119 -112 54 -25 148 -25 201 0 187 87 190 348
6 441 -54 27 -148 30 -202 7 -43 -19 -102 -74 -123 -115 l-15 -29 -378 0 -378
0 -134 134 -135 134 -1 444 0 444 -184 183 c-101 101 -188 182 -192 181 -5 -2
-8 3 -6 10 1 9 -130 12 -627 14 l-629 1 -196 196 -196 196 -838 0 -838 0 -36
40 c-20 22 -40 37 -46 33 -6 -3 -7 -2 -4 3 7 11 -222 240 -236 236 -4 -1 -6 1
-4 6 7 9 -262 278 -274 275 -5 -2 -8 1 -6 5 3 12 -226 242 -235 236 -5 -3 -7
-1 -6 3 4 14 -225 243 -236 236 -5 -3 -6 -1 -3 4 4 6 1 15 -6 20 -7 6 -345 9
-845 9 l-833 -1 3 125 3 125 920 0 920 0 68 -69 c37 -38 67 -73 67 -79 0 -6 3
-8 6 -5 7 8 154 -140 154 -154 0 -6 3 -9 6 -6 7 8 192 -175 187 -184 -2 -5 3
-8 11 -8 9 0 16 -8 16 -17 0 -9 3 -14 6 -10 8 7 34 -17 34 -32 0 -6 3 -10 8
-8 10 3 92 -80 85 -87 -4 -3 -1 -6 5 -6 6 0 31 -21 56 -47 l45 -46 1102 0
1101 0 49 -49 c27 -27 49 -54 49 -60 0 -6 3 -9 6 -6 7 8 194 -179 194 -194 0
-6 2 -9 5 -6 3 3 26 -15 51 -40 l46 -45 710 0 710 0 126 -126 c70 -69 126
-129 124 -133 -1 -5 2 -8 7 -8 14 0 100 -87 94 -94 -4 -3 -1 -6 5 -6 14 0 62
-47 62 -61 0 -6 5 -7 10 -4 5 3 10 1 10 -5 0 -30 58 -35 408 -34 l351 0 7 -30
c26 -121 139 -205 258 -193 136 14 228 118 222 252 -7 158 -148 263 -304 225
-84 -20 -168 -110 -176 -189 l-3 -26 -354 -1 c-207 -1 -362 3 -372 8 -26 13
-237 228 -237 241 0 6 -2 8 -6 5 -3 -3 -54 43 -114 103 l-108 110 -711 0
c-473 0 -711 3 -711 10 0 6 -4 7 -10 4 -5 -3 -10 2 -10 11 0 10 -3 15 -6 11
-9 -8 -33 16 -26 27 3 5 0 6 -7 2 -8 -5 -14 0 -18 13 -3 11 -9 18 -14 15 -5
-3 -9 2 -9 10 0 9 -7 16 -15 16 -8 0 -14 6 -12 13 1 6 -4 11 -10 10 -7 -2 -13
4 -13 13 0 8 -3 13 -7 11 -10 -5 -73 60 -65 67 3 3 1 6 -5 6 -15 0 -54 36 -46
44 3 3 1 6 -5 6 -16 0 -52 37 -45 44 4 3 -1 6 -11 6 -9 0 -14 5 -11 10 3 6 2
10 -4 10 -6 0 -19 9 -29 20 -19 20 -29 21 -655 20 -500 0 -636 3 -634 13 1 6
10 15 20 19 9 4 22 19 27 33 5 14 12 25 15 25 4 0 3 -5 -1 -12 -4 -7 -3 -8 5
-4 6 4 9 11 6 16 -3 4 3 14 12 21 14 12 16 12 8 0 -5 -10 -4 -12 3 -7 7 4 12
14 12 22 0 8 11 19 25 24 14 5 25 12 25 15 0 4 -6 3 -12 -1 -9 -5 -9 -3 1 9 7
9 17 15 21 12 5 -3 12 0 16 6 5 8 3 9 -6 4 -9 -5 -11 -4 -6 3 4 7 14 12 22 12
8 0 12 5 9 10 -3 6 1 10 10 10 9 0 13 5 10 10 -3 6 1 10 10 10 9 0 14 4 10 9
-3 5 4 12 15 16 11 3 19 12 17 18 -1 7 4 11 11 9 7 -1 17 9 22 23 5 14 12 25
15 25 4 0 3 -4 0 -10 -3 -5 -4 -10 -1 -10 3 0 13 14 21 30 9 17 20 28 26 24 6
-3 13 3 16 15 3 11 9 18 14 15 5 -3 9 1 9 8 0 11 228 13 1268 13 1168 -1 1269
0 1289 16 12 9 21 18 20 20 -1 2 13 20 32 39 19 19 31 28 27 20 -4 -8 -1 -7 7
3 9 10 24 25 34 34 10 8 12 12 3 8 -8 -4 -6 1 4 9 11 9 24 16 30 16 5 0 6 3 3
7 -4 3 3 11 16 18 12 6 21 17 20 23 -2 7 3 12 11 12 8 0 18 5 22 12 5 7 2 9
-7 3 -8 -4 -1 4 15 19 16 14 33 26 38 26 5 0 6 5 3 10 -3 6 1 10 9 10 8 0 18
5 22 12 5 7 2 8 -7 3 -8 -5 2 7 21 26 19 20 38 34 43 31 4 -2 7 2 7 7 0 13
700 16 701 4 5 -56 45 -128 90 -164 169 -133 417 -1 397 211 -16 165 -190 269
-341 202 -55 -24 -116 -95 -137 -158 l-17 -49 -349 -1 c-192 -1 -352 -2 -356
-3 -5 0 -7 -6 -5 -13 1 -7 -3 -12 -10 -13 -12 0 -59 -45 -48 -45 4 0 -1 -8
-11 -17 -10 -10 -21 -18 -25 -18 -4 0 -17 -10 -29 -23 -11 -12 -18 -22 -15
-22 4 0 0 -7 -9 -15 -8 -8 -20 -15 -26 -15 -6 0 -9 -3 -7 -7 3 -5 -5 -17 -16
-28 -11 -11 -16 -13 -12 -5 5 9 5 12 -1 7 -5 -5 -9 -14 -9 -20 -1 -7 -5 -11
-10 -10 -11 1 -30 -17 -33 -32 -1 -5 -5 -10 -9 -10 -16 0 -33 -17 -28 -26 4
-5 -1 -9 -10 -9 -9 0 -14 -4 -11 -9 3 -5 -2 -15 -11 -22 -14 -12 -16 -12 -8 0
5 10 4 12 -3 7 -7 -4 -12 -13 -12 -20 0 -7 -10 -17 -22 -22 -15 -6 -496 -10
-1283 -10 -1107 1 -1262 -1 -1276 -14 -9 -8 -14 -18 -12 -22 2 -5 -3 -8 -12
-8 -9 0 -13 -4 -10 -10 3 -5 0 -10 -8 -10 -8 0 -22 -9 -32 -20 -10 -11 -15
-20 -12 -20 4 0 -1 -8 -10 -18 -10 -11 -21 -17 -25 -15 -4 2 -10 -6 -13 -17
-4 -12 -18 -25 -31 -30 -13 -5 -23 -14 -22 -19 2 -5 -1 -9 -6 -9 -5 0 -17 -13
-27 -29 -10 -15 -19 -25 -19 -20 0 4 -8 -1 -18 -10 -11 -10 -17 -21 -15 -25 2
-5 -1 -8 -8 -8 -6 0 -22 -11 -35 -25 -13 -14 -20 -25 -16 -25 4 0 -5 -8 -21
-18 -15 -10 -26 -20 -24 -23 2 -2 -8 -15 -22 -29 -13 -14 -21 -18 -17 -10 4 8
-1 5 -11 -7 l-18 -23 -445 3 c-350 1 -444 5 -443 15 2 6 -2 12 -8 12 -14 0
-39 26 -39 41 0 7 -3 10 -6 6 -8 -8 -33 16 -27 26 2 4 0 6 -6 5 -5 -2 -21 13
-36 32 -14 19 -29 34 -33 33 -4 0 -6 3 -5 8 2 5 -2 9 -8 9 -14 0 -39 26 -39
41 0 7 -3 10 -6 6 -9 -8 -33 16 -26 27 3 5 0 6 -6 2 -7 -4 -17 3 -23 18 -7 14
-16 23 -20 20 -5 -3 -9 2 -9 11 0 9 -4 13 -10 10 -5 -3 -10 1 -10 10 0 9 -3
14 -7 12 -5 -2 -19 8 -33 21 -14 14 -19 22 -12 18 6 -4 12 -5 12 -2 0 3 -14
13 -30 21 -19 10 -28 20 -24 28 4 7 4 9 0 5 -10 -8 -46 23 -46 40 0 7 -4 10
-10 7 -5 -3 -10 1 -10 10 0 9 -3 14 -7 12 -5 -2 -19 8 -33 21 -14 14 -19 22
-12 18 6 -4 12 -5 12 -2 0 3 -14 13 -30 21 -18 9 -28 21 -24 27 4 6 3 9 -2 6
-11 -6 -85 68 -76 76 3 3 -2 6 -11 6 -9 0 -16 4 -14 9 1 5 -1 9 -6 10 -11 1
-35 25 -32 31 14 23 -92 26 -957 25 l-928 0 0 126 0 126 944 0 943 0 207 206
c113 114 208 207 211 207 3 0 90 -86 195 -190 l190 -190 1200 0 1199 0 71 68
c38 38 67 72 63 76 -5 4 -3 6 2 4 6 -2 61 47 122 108 l111 111 766 0 c727 0
767 1 786 18 11 10 20 24 20 32 0 8 4 12 8 9 9 -6 98 85 95 96 -2 4 3 7 10 5
6 -1 11 4 10 10 -2 7 0 12 5 11 12 -4 62 44 56 54 -3 5 0 7 8 6 7 -2 12 3 11
9 -2 7 2 12 9 10 6 -1 17 9 25 23 7 14 13 21 13 16 0 -5 11 1 24 13 22 21 33
22 152 22 71 1 138 0 150 0 13 -1 31 -16 48 -43 70 -110 202 -146 322 -88 153
74 173 302 36 407 -121 92 -298 54 -368 -79 l-15 -28 -185 0 -185 0 -124 -124
c-68 -68 -121 -127 -117 -131 4 -4 2 -5 -3 -3 -6 1 -29 -15 -51 -37 l-42 -40
-766 -1 -766 -1 -42 -43 c-24 -24 -42 -47 -41 -52 2 -4 0 -7 -5 -6 -12 4 -62
-45 -55 -55 3 -6 2 -7 -4 -4 -10 6 -100 -83 -95 -95 1 -5 -1 -7 -6 -6 -12 4
-62 -45 -55 -55 3 -6 1 -7 -5 -3 -6 3 -14 1 -19 -6 -28 -44 20 -43 -1172 -44
l-1126 0 -171 169 -171 169 110 112 111 111 1101 0 1100 -1 200 201 200 200
710 0 711 0 233 234 234 235 155 1 154 0 21 -30 c74 -108 163 -149 272 -125
175 39 249 255 134 393 -49 59 -101 81 -189 82 -65 0 -82 -4 -124 -29 -31 -18
-59 -46 -79 -77 l-30 -49 -189 0 -190 0 -71 -71 c-40 -40 -71 -76 -70 -80 2
-5 -1 -8 -5 -6 -11 3 -128 -113 -125 -124 2 -5 -1 -8 -5 -6 -12 3 -118 -104
-114 -116 1 -4 -1 -6 -6 -3 -4 2 -23 -11 -41 -30 l-34 -34 -712 0 -711 0 -28
-29 c-15 -16 -27 -32 -26 -36 1 -4 -2 -10 -6 -13 -4 -4 -3 0 1 8 5 8 -7 0 -28
-19 -20 -19 -33 -39 -30 -44 3 -6 2 -7 -4 -4 -13 8 -56 -37 -46 -48 5 -4 3 -5
-3 -2 -14 8 -47 -26 -37 -38 5 -4 3 -5 -3 -2 -14 8 -37 -17 -26 -28 4 -5 2 -5
-4 -2 -11 6 -61 -39 -56 -51 1 -4 -4 -7 -10 -7 -7 -1 -12 -7 -10 -14 1 -7 -1
-10 -6 -7 -12 7 -54 -38 -45 -48 5 -4 3 -7 -2 -5 -6 1 -17 -1 -25 -4 -8 -4
-510 -8 -1115 -10 -907 -2 -1100 -4 -1097 -15 1 -8 -2 -11 -6 -8 -12 7 -44
-28 -35 -39 5 -4 3 -5 -3 -2 -13 7 -56 -38 -46 -48 4 -4 2 -5 -3 -3 -15 4 -65
-43 -58 -55 3 -6 2 -7 -4 -4 -11 7 -59 -43 -55 -56 1 -5 -2 -6 -7 -3 -12 8
-33 -18 -23 -29 4 -5 2 -6 -4 -2 -11 6 -71 -52 -66 -66 1 -4 -1 -6 -6 -3 -10
6 -58 -45 -54 -57 1 -5 -2 -6 -7 -3 -12 8 -33 -18 -23 -29 4 -5 2 -5 -4 -2
-14 8 -47 -26 -37 -38 5 -4 3 -5 -3 -2 -14 8 -47 -26 -37 -37 5 -4 1 -6 -7 -4
-9 2 -14 -3 -12 -12 2 -8 1 -12 -3 -8 -10 9 -55 -33 -48 -45 3 -6 2 -7 -4 -4
-11 7 -59 -43 -55 -56 1 -5 -2 -6 -7 -3 -12 8 -33 -18 -23 -29 4 -5 2 -5 -4
-2 -14 8 -47 -26 -37 -37 5 -4 3 -6 -3 -4 -6 1 -22 -8 -37 -22 l-26 -25 -911
-1 -911 -1 3 126 3 126 820 0 820 -1 553 553 554 553 834 0 835 0 193 193 193
192 626 0 c520 0 628 3 639 14 11 11 10 13 -1 6 -9 -5 -12 -4 -7 3 4 7 14 12
22 12 8 0 14 8 14 17 0 9 3 14 6 10 8 -8 44 25 44 41 0 7 5 10 10 7 6 -3 10 1
10 9 0 8 5 18 12 22 7 5 8 2 3 -7 -5 -8 4 -3 18 10 15 14 27 31 27 38 0 8 3
12 8 10 9 -6 33 19 25 27 -4 3 1 6 10 6 10 0 17 6 17 14 0 7 8 20 18 27 16 13
16 12 3 -6 -9 -13 -5 -11 11 5 14 14 23 28 21 33 -2 4 3 7 11 7 9 0 16 6 16
14 0 7 8 20 18 27 16 13 16 12 3 -6 -14 -18 -14 -19 2 -5 15 14 17 57 17 463
l1 448 39 39 c22 22 40 43 40 46 0 4 15 20 33 36 17 17 26 27 18 22 -9 -5 -12
-3 -7 4 4 7 14 12 22 12 8 0 14 4 14 8 0 4 18 27 39 50 22 23 38 42 36 42 -2
0 14 18 36 40 22 22 38 40 35 40 -2 0 18 22 45 50 27 27 46 50 42 50 -3 0 5 9
18 21 13 12 23 25 22 30 -2 5 3 8 10 6 6 -1 11 3 10 10 -1 6 18 0 43 -14 87
-49 216 -29 288 43 63 63 88 184 54 264 -81 191 -354 201 -446 16 -39 -77 -27
-201 25 -258 14 -16 13 -20 -17 -58 -18 -22 -44 -53 -59 -69 -116 -124 -179
-197 -161 -186 8 4 5 -2 -7 -14 -12 -11 -27 -21 -33 -21 -6 0 -9 -4 -6 -9 3
-5 -6 -16 -20 -26 -14 -9 -23 -19 -21 -22 3 -3 -10 -18 -29 -35 -19 -17 -34
-37 -34 -45 0 -8 -3 -12 -7 -10 -5 2 -16 -4 -25 -15 -10 -10 -15 -18 -10 -18
4 0 0 -5 -8 -10 -13 -8 -15 -70 -15 -456 -1 -407 -2 -447 -18 -459 -9 -6 -14
-15 -10 -18 3 -4 1 -7 -5 -7 -14 0 -78 -62 -75 -72 2 -4 -1 -8 -7 -8 -13 0
-180 -166 -180 -180 0 -5 -6 -9 -12 -7 -7 1 -12 -3 -11 -8 1 -8 -198 -11 -632
-10 -348 0 -632 -2 -629 -4 2 -2 -12 -16 -31 -31 -19 -15 -32 -30 -28 -34 3
-3 1 -6 -6 -6 -15 0 -80 -67 -73 -75 3 -3 -2 -5 -10 -5 -9 0 -22 -8 -29 -17
-13 -17 -13 -17 6 -3 19 14 19 14 6 -2 -7 -10 -17 -18 -22 -18 -12 0 -117
-109 -111 -115 3 -3 -2 -5 -10 -5 -9 0 -22 -8 -29 -17 -13 -17 -13 -17 6 -3
19 14 19 14 6 -2 -7 -10 -19 -18 -27 -18 -7 0 -17 -8 -23 -17 -9 -17 -60 -18
-849 -18 -684 -1 -843 -3 -856 -14 -9 -7 -13 -17 -10 -22 3 -5 1 -9 -5 -9 -14
0 -121 -107 -114 -114 4 -3 1 -6 -5 -6 -14 0 -62 -48 -62 -62 0 -6 -3 -9 -6
-5 -7 7 -74 -61 -74 -76 0 -5 -3 -8 -6 -4 -7 7 -114 -100 -114 -114 0 -6 -4
-8 -10 -4 -5 3 -16 -7 -24 -22 -8 -15 -15 -25 -16 -20 0 12 -110 -103 -110
-115 0 -6 -3 -9 -6 -5 -8 8 -114 -98 -114 -114 0 -7 -3 -10 -6 -7 -7 8 -154
-137 -154 -153 0 -7 -3 -10 -6 -6 -7 7 -74 -61 -74 -76 0 -5 -3 -8 -6 -4 -7 7
-114 -100 -114 -115 0 -6 -3 -9 -6 -5 -3 3 -16 -4 -28 -16 l-21 -22 -810 0
-810 1 0 124 0 125 733 0 732 0 633 632 632 632 615 0 c338 1 628 1 643 1 23
0 67 39 250 222 l222 221 397 1 398 1 245 245 245 245 0 210 0 209 193 196
193 195 -1 669 -1 669 59 59 c42 43 64 57 75 52 35 -14 114 -16 157 -4 55 15
119 69 148 124 30 57 30 164 0 222 -91 172 -346 173 -435 0 -23 -43 -30 -135
-15 -189 7 -26 1 -35 -73 -110 l-80 -82 0 -672 0 -671 -192 -192 -193 -192 -1
-210 -1 -210 -199 -199 -199 -199 -396 0 -395 0 -225 -223 -224 -222 -640 1
-640 1 -606 -606 c-334 -333 -619 -617 -634 -631 l-27 -25 -699 0 -700 0 3
120 3 120 610 1 611 1 582 582 582 582 0 227 0 227 178 178 177 177 554 0 554
0 216 218 216 217 252 1 252 1 278 278 278 278 1 629 0 629 287 287 287 287 0
573 c0 538 1 572 18 572 33 0 118 47 146 81 42 49 59 96 59 164 1 104 -64 195
-162 230 -83 29 -195 2 -257 -62 -125 -131 -60 -361 114 -405 l42 -10 0 -561
0 -562 -288 -290 -287 -290 1 -624 1 -625 -268 -268 -267 -268 -249 0 -248 0
-220 -220 -220 -220 -554 0 -553 0 -190 -190 -190 -190 -2 -228 -1 -228 -567
-567 -567 -567 -605 0 -606 0 0 123 0 122 523 0 522 -1 438 437 437 437 0 336
0 337 285 284 284 285 543 0 543 0 245 245 245 245 241 0 240 0 155 155 c85
85 156 158 159 161 3 3 5 322 6 708 l0 703 217 217 c119 119 217 222 218 229
1 7 2 457 3 1001 l1 988 35 18 c105 54 156 206 106 312 -44 91 -126 143 -226
142 -79 -1 -132 -25 -184 -86 -100 -116 -63 -302 73 -373 l29 -15 0 -962 0
-963 -220 -220 -220 -220 0 -703 0 -703 -111 -112 -112 -112 -240 0 -240 1
-244 -243 -244 -243 -542 0 -542 0 -334 -335 -334 -334 -1 -336 0 -336 -390
-390 -389 -389 -487 0 c-481 0 -488 0 -488 20 0 13 -7 20 -20 20 -44 0 -112
43 -141 89 -16 25 -29 50 -29 57 0 7 -12 14 -27 16 -34 4 -59 44 -49 81 7 29
50 56 78 50 10 -3 32 10 52 30 22 23 52 39 85 48 l51 13 0 56 0 56 340 -1 339
0 76 73 c41 39 73 72 70 72 -2 0 6 11 18 23 12 13 24 23 27 23 6 0 138 135
148 151 4 6 7 204 7 440 0 396 1 429 17 445 10 10 18 20 18 23 0 3 3 6 6 8 3
1 86 83 184 182 l178 180 -2 487 c0 267 1 486 4 485 9 -3 75 67 72 76 -1 4 1
6 5 5 11 -4 159 144 155 154 -1 4 2 7 6 6 4 -2 20 10 35 25 l26 29 498 1 c392
2 497 5 495 15 -1 6 1 11 5 10 5 -2 46 35 93 82 47 47 84 88 82 93 -1 4 1 6 5
5 5 -2 19 8 33 22 14 14 24 28 22 33 -1 4 1 6 5 5 5 -2 46 35 92 81 l84 84 0
956 0 955 195 195 195 195 2 536 c2 564 2 566 10 558 6 -5 80 63 79 72 0 3 10
15 23 27 12 12 23 21 23 18 0 -4 187 185 189 191 0 2 17 18 36 35 l35 31 0
194 0 195 78 77 77 78 40 -14 c47 -16 119 -10 169 13 162 77 188 305 48 412
-158 120 -378 22 -390 -173 -2 -35 0 -77 6 -93 7 -19 7 -33 1 -36 -5 -4 -7
-11 -3 -16 3 -5 2 -8 -3 -7 -5 2 -49 -38 -98 -88 l-90 -91 1 -189 1 -189 -200
-201 -200 -202 0 -537 1 -536 -57 -57 c-31 -31 -55 -60 -53 -64 1 -4 -1 -7 -5
-6 -11 4 -159 -144 -155 -154 1 -4 -1 -7 -5 -6 -11 4 -79 -64 -75 -75 1 -5 -2
-6 -7 -2 -32 19 -34 -34 -35 -991 l-1 -952 -37 -35 c-20 -19 -34 -37 -31 -41
4 -3 2 -6 -4 -6 -14 0 -123 -107 -115 -114 3 -3 0 -6 -6 -6 -14 0 -62 -48 -62
-62 0 -6 -3 -9 -6 -6 -3 3 -19 -7 -35 -23 -16 -16 -33 -29 -37 -30 -4 0 -225
-1 -492 -1 -478 -1 -485 -1 -505 -22 -11 -11 -19 -24 -17 -28 1 -5 -2 -7 -7
-6 -11 4 -77 -64 -73 -75 1 -4 -2 -6 -7 -5 -11 4 -157 -143 -153 -154 1 -4 -2
-7 -7 -6 -4 2 -33 -22 -63 -52 l-55 -55 1 -480 1 -480 -111 -113 c-61 -61
-109 -112 -107 -112 3 0 -17 -18 -42 -40 -25 -22 -43 -40 -39 -40 4 0 -6 -10
-22 -22 -16 -13 -40 -36 -54 -52 l-25 -30 -1 -433 c0 -238 -2 -435 -5 -437 -2
-3 -58 -59 -123 -125 l-120 -121 -308 0 -308 0 0 225 0 225 -79 0 c-53 0 -82
4 -87 13 -4 6 -4 9 0 5 4 -3 22 7 39 23 l32 29 -1 136 -1 136 86 86 c47 47 84
90 83 96 -2 6 -1 8 3 4 4 -3 159 145 344 331 l338 337 1 664 c0 764 0 713 10
707 9 -6 33 19 25 27 -4 3 0 6 8 6 8 1 28 19 44 40 17 21 33 39 36 40 10 0
119 113 119 122 0 5 5 6 11 3 6 -4 13 2 16 14 3 12 9 21 13 21 5 0 22 14 39
30 l30 31 148 -1 c81 -1 267 -1 413 0 l265 0 20 30 c11 16 26 30 33 30 7 0 10
5 7 10 -3 6 1 10 9 10 9 0 16 8 16 17 0 9 2 14 5 11 6 -6 133 114 129 122 -1
3 11 15 27 25 16 11 32 28 35 38 3 10 8 16 10 14 3 -3 27 18 54 46 40 41 50
59 51 87 0 19 1 518 1 1108 l1 1073 166 166 c91 91 165 170 163 174 -1 5 1 8
5 7 13 -4 52 35 46 45 -3 6 -1 7 4 4 6 -4 17 1 25 11 13 14 16 65 15 333 0
296 1 317 19 342 10 15 25 27 32 27 6 0 12 7 12 16 0 8 3 14 8 11 4 -2 48 39
98 90 50 51 89 93 87 93 -3 0 2 7 11 15 8 8 19 15 25 15 6 0 11 7 11 17 0 9 2
14 5 11 3 -3 19 8 35 24 l30 30 0 327 0 328 121 121 120 122 41 -21 c92 -47
210 -31 282 38 51 50 68 86 74 159 17 215 -225 341 -396 205 -86 -68 -112
-199 -59 -301 l28 -54 -126 -126 -125 -125 0 -330 0 -330 -140 -139 c-77 -77
-140 -144 -140 -149 0 -6 -3 -8 -6 -4 -3 3 -24 -13 -45 -36 l-39 -42 0 -317 0
-317 -132 -133 c-73 -73 -132 -136 -130 -140 1 -5 -1 -7 -5 -6 -5 2 -42 -31
-84 -72 l-76 -76 1 -1107 c1 -609 -3 -1107 -7 -1107 -5 0 -5 -5 -2 -10 4 -6 2
-9 -3 -8 -12 4 -62 -49 -54 -56 3 -3 0 -6 -6 -6 -15 0 -162 -147 -155 -154 4
-3 1 -6 -5 -6 -15 0 -143 -126 -135 -134 3 -3 -184 -5 -416 -6 l-422 0 -152
-153 c-84 -83 -151 -155 -149 -159 1 -5 -2 -8 -6 -8 -5 0 -21 -10 -35 -23
l-27 -23 0 -680 0 -681 -429 -429 -429 -429 2 -134 1 -133 -42 -44 -41 -44
-126 0 c-94 0 -126 3 -127 13 0 6 -1 126 -2 265 l-2 253 35 32 c20 18 43 43
53 57 9 13 17 21 17 18 0 -4 20 13 45 38 25 24 45 49 45 56 0 6 2 9 5 6 7 -7
102 85 98 95 -2 4 0 7 6 7 13 0 131 119 131 132 0 6 3 9 6 6 6 -7 134 122 134
136 0 5 2 7 6 4 7 -8 94 79 94 94 0 6 2 9 5 6 7 -7 102 85 98 95 -2 4 3 7 11
7 39 0 39 16 39 940 0 861 1 895 19 908 10 7 16 18 13 23 -4 5 -1 9 5 9 13 0
70 57 70 70 0 6 6 9 13 8 6 -2 11 3 9 10 -1 6 4 11 10 10 7 -2 12 3 10 10 -1
6 4 12 12 12 8 0 17 9 21 20 3 11 12 19 18 17 7 -1 11 4 9 11 -1 6 4 11 10 10
7 -2 12 3 10 10 -1 6 2 12 8 12 5 0 19 9 30 20 19 19 33 20 413 20 l392 0 186
188 186 187 -1 712 -1 713 -147 147 -147 148 -1 488 c0 471 1 488 19 504 11 9
18 20 15 25 -3 4 -1 8 4 8 13 0 142 127 142 140 0 6 4 9 8 8 10 -4 112 100
112 113 0 5 3 8 8 8 4 -1 9 0 12 1 3 2 85 4 182 5 l177 2 177 177 178 177 0
575 1 575 67 63 c36 36 64 67 61 70 -4 3 1 6 10 6 9 0 21 8 26 19 9 17 14 17
60 5 148 -38 299 72 304 220 5 170 -151 296 -310 250 -125 -36 -202 -167 -170
-291 l14 -52 -59 -56 c-32 -31 -58 -61 -58 -67 0 -6 -2 -9 -5 -6 -9 8 -105
-94 -106 -111 0 -9 -1 -267 -1 -574 l-1 -558 -130 -130 -129 -129 -175 0 -175
0 -212 -212 -212 -213 1 -559 c0 -549 0 -559 20 -567 11 -4 17 -8 14 -8 -10
-1 143 -151 154 -151 6 0 8 -2 5 -5 -6 -7 60 -75 73 -75 5 0 9 -6 9 -14 0 -8
5 -16 12 -18 8 -3 11 -170 12 -655 1 -358 0 -650 -2 -648 -2 2 -65 -58 -140
-134 l-137 -136 -397 0 c-260 0 -398 -3 -399 -10 0 -5 -27 -32 -59 -60 -32
-27 -59 -53 -59 -57 -1 -8 -71 -78 -80 -79 -3 0 -28 -27 -56 -59 -27 -32 -54
-59 -60 -60 -5 0 -21 -15 -34 -32 l-24 -30 0 -900 c0 -746 -2 -901 -14 -905
-7 -3 -13 -10 -14 -17 -1 -6 -36 -42 -79 -81 -43 -38 -78 -73 -79 -76 -1 -5
-112 -119 -116 -119 -2 0 -125 -122 -125 -125 0 -4 -275 -275 -280 -275 -3 -1
-18 -19 -35 -40 -16 -21 -34 -39 -40 -40 -5 0 -17 -11 -25 -23 -13 -19 -16
-67 -15 -319 l0 -298 -122 0 -123 0 0 400 0 400 375 375 375 375 0 1029 0
1028 272 272 272 272 0 709 1 710 249 249 250 250 0 737 0 738 230 231 231
232 -2 389 -1 389 250 251 251 252 50 -27 c64 -32 162 -36 217 -7 91 47 134
118 135 221 0 79 -18 126 -69 176 -43 43 -80 60 -142 66 -103 11 -199 -40
-246 -131 -32 -59 -31 -155 1 -220 l24 -48 -257 -257 -256 -256 0 -394 0 -393
-230 -230 -230 -230 0 -736 0 -737 -247 -247 -248 -247 -1 -711 -1 -711 -271
-272 -272 -272 0 -1028 0 -1027 -375 -375 c-206 -206 -375 -381 -376 -387 -1
-7 -2 -191 -3 -408 l-1 -395 -122 -3 -122 -3 1 546 0 547 37 36 c20 20 35 40
33 44 -1 5 4 7 10 6 7 -2 12 3 10 10 -1 6 4 11 10 10 7 -2 12 3 10 10 -1 6 4
11 10 10 7 -2 12 3 10 10 -1 6 4 11 10 10 7 -2 12 3 10 10 -1 6 2 11 6 10 12
-4 101 85 96 94 -3 5 0 7 8 6 7 -2 12 3 10 10 -1 6 4 11 10 10 7 -2 12 3 10
10 -1 6 4 11 10 10 7 -2 12 3 10 10 -1 6 2 11 6 10 12 -4 101 85 96 94 -3 5 0
7 8 6 7 -2 12 4 10 12 -2 8 -1 12 3 8 9 -9 45 23 39 34 -3 5 0 7 8 6 7 -2 12
3 10 10 -1 6 4 11 10 10 7 -2 12 3 10 10 -1 6 4 11 10 10 7 -2 12 3 10 10 -1
8 1 11 6 8 9 -5 98 84 94 96 -1 4 4 7 10 6 7 -2 12 3 10 10 -1 6 4 11 10 10 7
-2 12 3 10 10 -1 6 4 11 10 10 7 -2 12 3 10 10 -1 8 2 11 7 8 33 -21 34 9 34
1184 0 650 4 1163 9 1166 4 3 5 10 2 16 -4 7 -2 8 4 4 7 -4 12 0 12 10 0 10 3
15 6 11 8 -8 54 34 48 45 -3 5 0 7 8 6 7 -2 12 4 10 12 -2 8 -1 12 3 8 9 -9
45 23 39 34 -3 5 0 7 8 6 7 -2 12 3 10 10 -1 6 4 11 10 10 7 -2 12 3 10 10 -1
6 4 11 10 10 7 -2 12 3 10 10 -1 6 4 11 10 10 7 -2 12 3 10 10 -1 8 1 11 6 8
11 -6 43 30 34 39 -4 4 0 5 8 3 8 -1 14 3 12 10 -1 6 4 11 10 10 7 -2 12 3 10
10 -1 8 1 11 6 8 11 -6 43 30 34 39 -4 4 0 5 8 3 8 -2 14 3 12 10 -1 8 1 11 6
8 5 -3 19 6 30 19 12 14 19 25 14 26 -4 0 3 4 16 10 13 5 20 13 17 19 -4 6 -1
9 6 8 11 -2 13 167 14 869 l0 873 220 220 220 220 1 737 c1 549 4 738 13 741
6 2 8 9 5 14 -4 6 -3 8 2 5 11 -6 101 83 97 95 -2 4 3 7 10 5 6 -1 11 4 10 10
-2 7 3 12 10 10 6 -1 11 4 10 10 -2 7 3 12 10 10 6 -1 11 4 10 10 -2 7 3 12
10 10 6 -1 11 4 9 11 -1 8 1 11 6 8 11 -6 43 30 34 39 -4 4 0 5 8 3 8 -2 14 3
12 10 -1 8 1 11 6 8 5 -3 19 6 30 19 12 14 19 25 14 26 -4 0 3 4 16 10 13 5
20 13 17 19 -4 6 -1 9 7 8 7 -2 12 3 10 10 -1 8 1 11 6 8 11 -6 43 30 34 39
-4 4 0 5 8 3 8 -2 14 3 13 9 -2 7 2 12 9 10 9 -1 12 95 13 416 l0 419 30 15
c172 88 176 331 7 430 -61 36 -164 39 -228 5 -170 -88 -179 -324 -17 -427 l43
-27 0 -373 c0 -311 -2 -377 -15 -401 -8 -16 -15 -25 -15 -21 0 4 -6 2 -14 -5
-8 -7 -12 -16 -9 -20 2 -5 -1 -8 -8 -8 -15 0 -59 -47 -51 -54 3 -3 0 -6 -6 -6
-14 0 -302 -287 -294 -294 3 -3 -1 -6 -9 -6 -12 0 -14 -108 -14 -736 l1 -736
-23 -18 c-13 -10 -23 -24 -23 -31 0 -7 -2 -10 -5 -7 -6 5 -73 -58 -106 -100
-10 -14 -19 -21 -19 -17 0 4 -13 -9 -30 -30 -16 -21 -30 -35 -30 -32 0 7 -53
-46 -79 -80 -12 -14 -21 -22 -21 -18 0 4 -13 -8 -29 -28 -15 -20 -31 -34 -35
-30 -3 3 -6 -1 -6 -11 0 -9 -4 -15 -9 -12 -5 3 -13 -2 -17 -12 -4 -9 -9 -406
-10 -882 -3 -958 -2 -895 -10 -888 -8 8 -54 -37 -54 -52 0 -7 -3 -11 -6 -7 -8
8 -34 -18 -34 -34 0 -7 -3 -10 -6 -6 -8 8 -33 -16 -27 -25 2 -5 -1 -8 -8 -8
-6 0 -22 -11 -35 -25 -13 -14 -20 -25 -16 -25 4 0 -10 -11 -31 -26 -21 -14
-35 -29 -32 -35 4 -5 1 -9 -5 -9 -15 0 -41 -26 -33 -34 4 -3 0 -6 -7 -6 -15 0
-60 -46 -52 -54 3 -3 0 -6 -6 -6 -6 0 -32 -21 -58 -46 l-47 -47 0 -1161 0
-1161 -88 -88 c-49 -48 -89 -93 -89 -99 0 -6 -2 -9 -5 -6 -7 7 -155 -140 -155
-154 0 -6 -2 -9 -6 -6 -3 3 -91 -81 -196 -186 l-191 -192 1 -577 0 -577 -124
0 c-111 0 -124 2 -125 18 0 9 -2 300 -2 646 -2 510 1 632 11 643 7 7 10 13 5
14 -4 0 2 4 15 9 12 5 22 17 22 25 0 9 5 13 10 10 6 -3 10 1 10 10 0 8 8 19
18 22 23 9 42 29 42 44 0 7 3 10 6 6 8 -8 34 18 34 34 0 7 3 10 6 6 8 -8 34
18 34 34 0 7 3 10 6 6 8 -8 34 18 34 34 0 7 3 10 6 6 8 -8 34 18 34 33 0 6 3
9 8 7 9 -5 42 30 34 37 -3 3 2 6 12 6 9 0 14 5 11 10 -3 6 1 10 9 10 9 0 16 6
16 14 0 8 5 18 12 22 7 5 8 3 3 -6 -5 -9 -4 -11 3 -6 7 4 12 14 12 22 0 8 3
13 8 11 9 -5 42 30 34 37 -3 3 0 6 7 6 14 0 47 30 34 31 -4 0 2 4 15 9 12 5
22 17 22 25 0 9 5 13 10 10 6 -3 10 1 10 10 0 8 8 19 18 22 23 9 42 29 42 44
0 7 3 10 6 6 8 -8 34 18 34 34 0 7 3 10 6 6 4 -3 18 7 33 24 l26 30 1 1188 1
1189 26 24 c15 14 24 28 20 31 -3 4 -1 7 5 7 15 0 82 67 74 74 -3 3 -1 6 5 6
6 0 46 35 89 77 43 42 71 73 63 69 -7 -4 -6 -1 5 6 10 7 46 40 79 73 l60 60 0
952 0 953 223 222 224 223 0 1011 0 1012 43 10 c104 27 181 129 178 238 -3
139 -103 238 -241 238 -101 0 -175 -45 -222 -138 -25 -49 -28 -143 -5 -197 28
-68 101 -128 175 -144 l32 -7 0 -1005 0 -1005 -39 -38 c-22 -21 -37 -41 -33
-44 3 -3 0 -6 -6 -6 -12 0 -95 -80 -84 -81 4 0 -1 -4 -11 -8 -10 -4 -19 -11
-19 -16 -1 -6 -15 -20 -32 -33 -17 -12 -36 -33 -43 -45 -7 -12 -12 -17 -13
-12 0 13 -50 -45 -50 -58 0 -6 -3 -8 -6 -4 -4 3 -30 -18 -59 -48 l-52 -54 0
-956 c0 -525 -2 -956 -4 -958 -6 -3 -157 -147 -155 -147 6 0 -235 -235 -244
-238 -5 -2 -8 -8 -4 -13 3 -5 0 -9 -5 -9 -8 0 -11 -362 -11 -1201 0 -660 -3
-1198 -7 -1196 -5 3 -21 -13 -38 -34 -16 -21 -38 -41 -48 -44 -9 -4 -15 -10
-12 -14 2 -4 -7 -14 -20 -21 -14 -7 -25 -16 -25 -20 0 -7 -97 -108 -102 -106
-2 0 -37 -34 -79 -76 -41 -43 -75 -78 -74 -78 1 0 -36 -38 -83 -85 -47 -47
-90 -85 -94 -85 -5 0 -6 -4 -3 -10 3 -5 2 -10 -3 -10 -5 0 -37 -28 -71 -62
-42 -42 -61 -70 -62 -87 0 -14 -1 -311 -1 -658 l-1 -633 -123 0 -124 0 0 757
0 756 310 311 310 310 0 1322 0 1323 178 178 177 178 0 646 0 646 -81 81 c-45
45 -85 78 -89 74 -5 -4 -5 -2 -2 4 7 13 -142 161 -158 156 -5 -2 -7 0 -2 4 4
4 -5 20 -20 36 l-26 28 0 1038 0 1039 146 147 147 146 0 264 0 264 35 22 c164
101 151 348 -22 427 -209 96 -418 -111 -325 -320 22 -49 72 -100 113 -117 l29
-12 0 -232 0 -231 -145 -144 c-111 -110 -145 -150 -145 -170 -1 -14 -2 -514
-3 -1110 l-2 -1083 191 -192 192 -191 0 -575 0 -575 -178 -178 -177 -177 0
-1323 0 -1324 -309 -309 -309 -309 0 -790 0 -790 -210 0 -210 0 0 272 0 272
43 45 c24 25 47 46 53 46 5 0 9 4 9 9 0 5 31 39 69 76 l69 66 -2 617 -1 617
173 172 172 172 0 825 0 824 -190 190 c-137 137 -190 196 -190 213 -1 13 -1
192 -1 397 l0 374 28 26 c15 14 27 30 26 34 -2 4 0 7 5 6 9 -4 118 105 115
114 -2 5 0 7 5 5 9 -3 58 46 55 55 -2 5 0 7 5 5 9 -3 118 106 114 115 -1 5 2
7 6 5 10 -3 78 65 74 75 -1 5 1 7 6 5 4 -1 17 8 28 19 l22 22 0 1375 0 1375
-119 118 -119 119 0 349 c0 192 3 347 6 343 4 -3 29 3 57 13 163 62 214 265
99 392 -48 53 -109 80 -181 80 -169 0 -278 -151 -231 -321 16 -61 92 -135 156
-154 l49 -14 5 -355 5 -355 109 -109 c60 -60 106 -103 101 -95 -5 10 -4 12 4
7 6 -4 9 -11 6 -16 -3 -5 -1 -11 5 -15 7 -4 10 -455 10 -1363 l0 -1358 -245
-244 -245 -245 0 -413 0 -413 190 -190 190 -190 0 -805 0 -805 -24 -24 c-13
-13 -21 -26 -18 -29 3 -3 0 -6 -7 -6 -16 0 -41 -25 -41 -41 0 -7 -3 -10 -6 -6
-8 8 -44 -25 -44 -42 0 -8 -2 -12 -5 -9 -8 7 -75 -58 -75 -73 0 -7 -2 -10 -6
-7 -3 3 -31 -20 -62 -52 l-57 -59 1 -616 1 -616 -46 -47 c-25 -26 -44 -50 -43
-55 1 -4 -2 -6 -6 -5 -10 4 -117 -105 -114 -115 1 -5 -2 -6 -8 -2 -21 13 -26
-48 -26 -312 l1 -273 -122 0 c-91 0 -123 3 -124 13 0 6 -1 495 -1 1086 l0
1075 -102 142 c-55 78 -105 139 -111 136 -5 -3 -7 -2 -3 3 7 7 -14 42 -87 140
-16 23 -39 54 -50 69 -11 16 -27 35 -35 44 -13 13 -15 109 -15 711 l-1 696
247 248 247 249 0 496 1 496 212 212 212 212 -1 798 c0 440 -1 805 -1 811 -1
7 -97 108 -213 225 l-212 212 -1 128 0 128 28 11 c35 15 92 74 113 117 24 51
25 128 3 186 -77 203 -359 212 -449 15 -52 -116 4 -270 117 -322 23 -10 23
-14 23 -167 0 -144 2 -160 21 -184 11 -14 25 -24 30 -20 5 3 8 1 7 -4 -4 -13
64 -78 77 -74 6 2 7 1 3 -3 -9 -10 33 -55 45 -48 6 3 7 1 4 -4 -7 -12 16 -36
26 -28 4 3 5 2 3 -1 -7 -10 27 -43 37 -37 6 3 7 2 4 -4 -8 -12 38 -54 49 -45
4 4 4 2 1 -4 -8 -14 17 -37 28 -26 5 4 5 2 2 -4 -8 -14 17 -37 27 -26 4 4 6 2
4 -3 -1 -6 12 -25 30 -44 l32 -34 0 -740 0 -740 -185 -184 c-102 -102 -185
-190 -185 -196 0 -5 -3 -8 -6 -4 -8 7 -34 -17 -34 -32 0 -6 -3 -11 -8 -11 -4
0 -7 -223 -7 -495 l0 -495 -247 -247 -246 -246 -1 -754 0 -753 118 -165 c65
-90 121 -162 125 -160 3 3 4 2 1 -1 -5 -7 11 -31 97 -147 l59 -79 0 -1016 c0
-560 0 -1038 -1 -1064 l0 -48 -123 0 -124 0 1 935 c1 514 -2 935 -6 935 -5 0
-8 6 -8 14 0 8 -5 18 -12 22 -7 5 -9 2 -4 -7 4 -8 -1 -5 -11 7 -10 11 -29 31
-43 44 -14 13 -18 19 -10 15 9 -5 12 -4 7 1 -5 5 -14 9 -20 9 -7 0 -12 7 -12
15 0 8 -5 15 -10 15 -6 0 -22 11 -35 24 -14 13 -18 20 -10 16 9 -5 12 -4 7 1
-5 5 -14 9 -20 9 -7 0 -12 7 -12 15 0 8 -5 15 -11 15 -13 0 -44 30 -44 44 0 5
-5 13 -12 17 -7 5 -8 3 -3 -7 5 -8 -8 3 -28 24 -20 20 -37 42 -37 47 0 5 -5
12 -12 16 -7 5 -8 2 -3 -7 4 -8 -10 5 -31 28 l-39 42 0 1158 0 1158 275 275
275 275 0 870 -1 871 -227 227 -227 228 0 1012 0 1013 44 12 c105 28 181 128
179 236 -1 76 -21 123 -74 174 -153 151 -415 37 -410 -177 2 -111 88 -219 189
-236 l37 -6 0 -1025 c0 -601 4 -1028 9 -1032 5 -3 6 1 1 9 -8 12 -6 12 8 0 9
-7 14 -18 10 -24 -3 -5 -1 -7 5 -3 6 3 13 -3 17 -14 3 -11 12 -19 18 -17 7 1
11 -4 9 -10 -1 -7 5 -13 14 -13 9 0 12 -5 8 -12 -4 -6 -3 -8 3 -5 11 7 44 -28
35 -38 -4 -4 0 -5 8 -3 8 2 14 -2 15 -9 0 -6 4 -15 9 -20 5 -5 6 -2 1 6 -5 9
-4 12 3 7 7 -4 12 -14 12 -23 0 -9 3 -14 6 -10 8 8 33 -16 27 -26 -2 -4 1 -6
8 -5 7 2 13 -2 14 -9 0 -6 4 -15 9 -20 5 -5 6 -2 1 6 -5 9 -4 12 3 7 7 -4 12
-14 12 -22 0 -8 4 -13 9 -9 5 3 12 -4 16 -15 3 -11 12 -19 18 -17 7 1 11 -4 9
-10 -1 -7 5 -13 14 -13 9 0 12 -5 8 -12 -4 -7 -3 -8 4 -4 6 4 17 -4 24 -18 7
-14 18 -26 23 -28 6 -2 9 -6 8 -10 -2 -5 4 -8 13 -8 9 0 12 -5 8 -12 -4 -7 -3
-8 4 -4 7 4 16 -2 21 -17 6 -14 9 -381 9 -883 l-1 -859 -50 -50 c-28 -27 -47
-44 -42 -36 5 9 4 12 -3 7 -7 -4 -12 -12 -12 -17 0 -15 -26 -39 -34 -32 -3 4
-6 -1 -6 -9 0 -9 -8 -22 -17 -29 -14 -12 -16 -12 -8 0 5 10 4 12 -3 7 -7 -4
-12 -13 -12 -19 0 -15 -67 -77 -74 -69 -3 3 -6 -1 -6 -9 0 -16 -66 -80 -74
-71 -3 3 -6 0 -6 -7 0 -16 -26 -42 -34 -34 -3 4 -6 -1 -6 -9 0 -9 -8 -22 -17
-29 -14 -12 -16 -12 -8 0 5 10 4 12 -3 7 -7 -4 -12 -12 -12 -17 0 -15 -26 -39
-34 -32 -3 4 -6 -1 -6 -9 0 -9 -8 -22 -17 -29 -14 -12 -16 -12 -8 0 5 10 4 12
-3 7 -7 -4 -12 -13 -12 -21 0 -8 -8 -20 -18 -27 -17 -12 -17 -71 -15 -1183 1
-643 3 -1175 4 -1182 1 -7 6 -10 11 -7 4 3 8 -2 8 -10 0 -9 3 -15 8 -14 9 4
312 -300 312 -313 0 -5 4 -8 8 -7 4 2 20 -9 35 -24 l27 -27 0 -931 0 -931
-126 3 -127 3 0 792 1 792 -23 19 c-13 11 -26 17 -30 14 -4 -4 -5 0 -3 8 2 8
-3 14 -10 12 -6 -1 -11 1 -10 5 2 5 -8 19 -22 33 -14 14 -28 24 -33 22 -4 -1
-6 4 -5 10 2 7 -3 12 -10 10 -6 -1 -11 1 -10 5 4 10 -45 59 -55 55 -4 -1 -6 1
-5 6 4 10 -184 198 -194 194 -4 -1 -7 1 -6 5 2 5 -8 19 -22 33 -14 14 -28 24
-33 22 -4 -1 -6 4 -5 10 2 7 -3 12 -10 10 -6 -1 -11 1 -10 5 2 5 -8 19 -22 33
-14 14 -28 24 -33 22 -4 -1 -6 4 -5 10 2 7 -4 11 -12 10 -8 -2 -12 -1 -8 3 8
9 -23 46 -34 39 -4 -3 -8 594 -8 1326 0 1047 -3 1334 -13 1345 -6 7 -18 22
-26 33 -8 12 -18 19 -23 16 -4 -3 -8 2 -8 10 0 9 -7 16 -15 16 -8 0 -15 4 -15
9 0 5 -57 66 -127 135 l-128 125 0 578 0 577 47 49 c27 28 48 54 48 59 0 4 4
7 8 5 10 -2 72 61 72 74 0 5 4 8 8 6 11 -3 131 120 124 127 -3 3 0 6 6 6 7 0
24 13 39 29 l28 29 0 1103 c-1 1191 2 1131 -52 1160 -13 7 -21 14 -19 16 5 6
-108 119 -116 115 -5 -2 -8 1 -8 6 0 11 -88 101 -93 95 -3 -2 -5 104 -5 237
l0 241 36 23 c133 85 162 252 63 367 -61 72 -167 105 -251 80z m-5259 -4788
c13 -16 12 -17 -3 -4 -17 13 -22 21 -14 21 2 0 10 -8 17 -17z m140 -140 c13
-16 12 -17 -3 -4 -10 7 -18 15 -18 17 0 8 8 3 21 -13z m384 -3083 c10 -11 16
-20 13 -20 -3 0 -13 9 -23 20 -10 11 -16 20 -13 20 3 0 13 -9 23 -20z m316
-317 c13 -16 12 -17 -3 -4 -17 13 -22 21 -14 21 2 0 10 -8 17 -17z m2420
-2600 c13 -16 12 -17 -3 -4 -17 13 -22 21 -14 21 2 0 10 -8 17 -17z m10359
-2587 c0 -2 -8 -10 -17 -17 -16 -13 -17 -12 -4 4 13 16 21 21 21 13z m-13840
-1100 c0 -2 -8 -10 -17 -17 -16 -13 -17 -12 -4 4 13 16 21 21 21 13z m-2080
-1720 c0 -2 -8 -10 -17 -17 -16 -13 -17 -12 -4 4 13 16 21 21 21 13z m2000
-900 c0 -2 -8 -10 -17 -17 -16 -13 -17 -12 -4 4 13 16 21 21 21 13z m-80 -80
c0 -2 -8 -10 -17 -17 -16 -13 -17 -12 -4 4 13 16 21 21 21 13z m-40 -40 c0 -2
-8 -10 -17 -17 -16 -13 -17 -12 -4 4 13 16 21 21 21 13z m12331 -253 c13 -16
12 -17 -3 -4 -10 7 -18 15 -18 17 0 8 8 3 21 -13z m-5381 -197 c0 -2 -8 -10
-17 -17 -16 -13 -17 -12 -4 4 13 16 21 21 21 13z m-180 -180 c0 -2 -8 -10 -17
-17 -16 -13 -17 -12 -4 4 13 16 21 21 21 13z m4870 -3230 c0 -2 -8 -10 -17
-17 -16 -13 -17 -12 -4 4 13 16 21 21 21 13z m-7170 -1250 c0 -2 -8 -10 -17
-17 -16 -13 -17 -12 -4 4 13 16 21 21 21 13z"/>
<path d="M21511 23680 c-123 -57 -177 -205 -120 -326 13 -27 25 -52 26 -55 2
-4 -31 -42 -74 -85 l-79 -79 1 -313 0 -313 -205 -207 -205 -208 1 -1336 0
-1335 -27 -19 c-15 -10 -25 -22 -23 -26 3 -4 -2 -8 -11 -8 -9 0 -14 -3 -12 -7
2 -5 -8 -19 -21 -33 -14 -14 -22 -18 -18 -10 8 16 -7 -1 -32 -37 -7 -10 -10
-11 -6 -3 4 9 -1 7 -13 -5 -11 -11 -19 -23 -16 -27 2 -5 -1 -8 -7 -8 -6 0 -21
-10 -33 -21 -12 -12 -15 -19 -7 -15 8 4 6 0 -4 -8 -11 -9 -23 -16 -28 -16 -4
0 -8 -7 -8 -16 0 -8 -3 -13 -7 -11 -5 3 -17 -5 -28 -16 -12 -11 -14 -17 -5
-13 16 8 -1 -7 -37 -32 -10 -7 -11 -10 -3 -6 8 4 4 -4 -10 -18 -14 -13 -27
-24 -30 -23 -8 2 -55 -49 -51 -55 2 -3 -6 -10 -18 -16 -11 -6 -20 -13 -18 -15
2 -2 -8 -15 -22 -29 -13 -14 -21 -18 -16 -10 7 13 6 13 -6 0 -8 -8 -21 -20
-29 -28 -13 -12 -13 -13 0 -6 13 7 13 5 1 -9 -7 -9 -17 -15 -21 -12 -4 2 -12
-6 -19 -18 l-12 -22 -559 0 c-307 0 -556 -3 -554 -7 3 -4 -1 -8 -9 -8 -8 0
-21 -8 -28 -17 -13 -17 -13 -17 6 -3 19 14 19 14 6 -2 -7 -10 -20 -18 -29 -18
-8 0 -13 -2 -10 -5 7 -8 -58 -75 -73 -75 -7 0 -10 -3 -6 -6 3 -4 -18 -27 -48
-51 -30 -25 -55 -48 -55 -51 0 -3 10 3 23 14 l22 19 -19 -22 c-11 -13 -25 -23
-31 -23 -7 0 -19 -8 -26 -17 -13 -17 -13 -17 6 -3 19 14 19 14 6 -2 -7 -10
-20 -18 -29 -18 -8 0 -13 -3 -9 -6 3 -3 -9 -19 -27 -34 l-32 -28 1 -259 c0
-248 -1 -259 -20 -278 -21 -20 -21 -20 0 -5 20 15 20 15 1 -7 -11 -13 -25 -23
-33 -23 -8 0 -12 -4 -8 -9 3 -5 -4 -12 -15 -16 -11 -4 -18 -11 -15 -16 4 -5 3
-9 -2 -9 -4 -1 -24 -15 -43 -32 -19 -17 -29 -27 -21 -23 9 5 12 4 7 -3 -4 -7
-14 -12 -22 -12 -8 0 -14 -3 -12 -7 2 -5 -11 -22 -29 -40 -18 -17 -33 -28 -33
-25 -1 4 -8 -5 -16 -20 -8 -16 -22 -28 -31 -28 -9 0 -14 -2 -11 -5 7 -7 -58
-75 -72 -75 -6 0 -9 -4 -5 -9 3 -5 -4 -12 -15 -16 -11 -4 -18 -11 -15 -16 4
-5 3 -9 -2 -9 -4 -1 -24 -15 -43 -32 -19 -17 -29 -27 -21 -23 9 5 12 4 7 -3
-4 -7 -14 -12 -23 -12 -9 0 -14 -2 -11 -5 7 -8 -55 -72 -64 -67 -10 4 -9 26
-12 -428 -3 -428 -2 -413 -15 -405 -5 3 -13 0 -17 -6 -5 -8 -2 -10 7 -5 8 4 5
0 -5 -8 -11 -9 -24 -16 -29 -16 -4 0 -6 -4 -3 -9 3 -4 -6 -13 -19 -19 -14 -7
-24 -17 -23 -24 2 -7 -3 -12 -10 -10 -8 1 -11 -2 -7 -8 3 -5 -1 -10 -10 -10
-9 0 -14 -4 -11 -9 3 -4 -6 -13 -20 -20 -14 -6 -22 -16 -19 -21 3 -6 2 -10 -3
-10 -8 0 -40 -30 -79 -75 -10 -12 -13 -14 -8 -5 9 13 8 13 -7 2 -10 -8 -20
-22 -23 -33 -4 -11 -11 -17 -16 -14 -5 4 -9 2 -9 -2 0 -5 -7 -18 -16 -29 -8
-10 -12 -13 -8 -5 5 9 3 12 -5 7 -6 -4 -9 -12 -6 -17 4 -5 1 -9 -4 -9 -6 0
-20 -10 -31 -23 l-19 -22 -511 0 c-480 0 -510 -1 -510 -17 0 -14 9 -18 43 -19
76 0 972 2 985 3 6 1 12 8 12 15 0 8 5 11 10 8 6 -3 10 1 10 10 0 8 8 18 18
22 23 8 52 39 45 47 -4 3 1 6 10 6 9 0 19 5 23 12 5 7 3 8 -6 3 -9 -5 -11 -4
-6 3 4 7 13 12 19 12 15 0 48 36 40 44 -4 3 1 6 11 6 9 0 14 5 11 10 -3 6 1
10 10 10 9 0 13 5 10 10 -3 6 1 10 10 10 9 0 13 5 10 10 -3 6 1 10 10 10 9 0
13 5 10 10 -3 6 1 10 9 10 8 0 18 5 22 12 5 7 3 8 -6 3 -9 -5 -11 -4 -6 3 4 7
13 12 19 12 15 0 48 36 40 44 -4 3 1 6 11 6 9 0 21 10 26 23 5 12 9 19 9 15 1
-13 41 26 41 40 0 7 5 10 10 7 13 -8 12 -40 15 405 1 212 3 390 4 397 1 14
190 203 202 203 5 0 8 4 6 8 -2 10 63 72 76 72 4 0 6 4 3 8 -6 10 30 43 38 35
3 -4 6 -1 6 5 0 12 179 192 192 192 4 0 7 4 5 9 -1 4 8 17 21 27 23 19 23 20
23 277 0 256 3 292 20 281 5 -3 9 -1 9 4 0 5 23 33 50 61 28 28 50 49 50 45 0
-4 10 6 23 22 32 42 91 99 99 96 4 -1 10 7 13 18 4 11 14 20 22 20 9 0 14 3
10 6 -7 8 10 27 38 42 14 7 190 10 540 11 286 0 530 0 543 0 17 1 112 89 340
319 l317 317 -1 1337 c0 736 2 1336 4 1334 7 -8 42 28 42 43 0 8 3 12 6 8 8
-8 33 16 27 26 -2 4 3 7 11 7 8 0 18 5 22 12 5 7 3 8 -6 3 -9 -5 -11 -4 -6 3
4 7 13 12 19 12 15 0 48 36 40 44 -4 3 1 6 10 6 9 0 19 5 23 12 4 7 3 8 -4 4
-7 -4 -12 -5 -12 -1 0 3 11 10 25 15 14 5 30 20 35 32 5 13 9 20 9 16 1 -13
41 25 41 39 0 6 5 15 12 19 7 5 8 3 3 -6 -5 -9 -4 -11 3 -6 7 4 12 14 12 22 0
8 5 12 10 9 6 -3 10 1 10 10 0 9 5 13 10 10 6 -3 10 1 10 10 0 9 5 13 10 10 6
-3 10 1 10 9 0 9 6 16 13 16 9 0 12 68 12 313 -1 317 1 351 15 342 5 -3 11 4
15 15 4 11 9 19 13 17 4 -2 17 7 29 20 12 13 19 23 15 23 -4 1 4 7 18 15 14 8
21 15 15 15 -5 0 1 7 15 14 21 12 28 12 50 -4 60 -43 162 -49 234 -15 174 83
185 334 20 431 -63 37 -161 43 -223 14z"/>
<path d="M9429 12773 c-13 -16 -12 -17 4 -4 16 13 21 21 13 21 -2 0 -10 -8
-17 -17z"/>
<path d="M8969 12313 c-13 -16 -12 -17 4 -4 16 13 21 21 13 21 -2 0 -10 -8
-17 -17z"/>
<path d="M12474 10048 l-19 -23 23 19 c21 18 27 26 19 26 -2 0 -12 -10 -23
-22z"/>
<path d="M11614 6868 l-19 -23 23 19 c21 18 27 26 19 26 -2 0 -12 -10 -23 -22z"/>
</g>
</svg>
